<?xml version="1.0" encoding="utf-8"?>
<!-- Generator: Adobe Illustrator 16.0.0, SVG Export Plug-In . SVG Version: 6.00 Build 0)  -->
<!DOCTYPE svg PUBLIC "-//W3C//DTD SVG 1.1//EN" "http://www.w3.org/Graphics/SVG/1.1/DTD/svg11.dtd">
<svg version="1.1" id="Layer_1" xmlns="http://www.w3.org/2000/svg" xmlns:xlink="http://www.w3.org/1999/xlink" x="0px" y="0px"
	 width="141.775px" height="375.688px" viewBox="429.544 144.876 141.775 375.688"
	 enable-background="new 429.544 144.876 141.775 375.688" xml:space="preserve">
<g>
	<rect x="429.544" y="144.876" fill="none" width="141.775" height="375.688"/>
	<g>
		<g>
			<rect x="482.326" y="234.115" fill="#D9D3BC" width="29.457" height="46.954"/>
			<g>
				<path marker-end="none" marker-start="none" fill="#D9D3BC" d="M457.676,185.827l76.225-2.577
					c0.147,16.135-5.019,23.998-13.623,26.514l-49.344,0.736C461.178,210.281,457.671,200.688,457.676,185.827z"/>
				<path marker-end="none" marker-start="none" fill="#D9D3BC" d="M477.193,178.549c11.789-12.648,29.771-11.239,40.139,3.146
					c4.235,5.877,6.547,13.016,6.997,20.267c5.723,4,4.617,11.804-1.684,14.698c-1.582,5.232-4.221,10.071-7.892,14.01
					c-11.788,12.646-29.771,11.237-40.138-3.147c-2.274-3.157-3.996-6.68-5.17-10.389c-8.257-4.363-5.28-14.638-1.865-14.383
					C467.975,193.758,471.219,184.959,477.193,178.549z"/>
				<path marker-end="none" marker-start="none" fill="#D9D3BC" d="M469.994,193.091l53.024-1.326l-2.063-7.807l-49.49,0.146
					L469.994,193.091z"/>
				<path marker-end="none" marker-start="none" fill="#D9D3BC" d="M462.834,186.196c-2.189,5.357,1.309,16.51,4.003,19.838
					c2.964-3.904,5.752-15.607,9.62-17.995C473.24,188.596,463.397,186.933,462.834,186.196z"/>
				<path marker-end="none" marker-start="none" fill="#D9D3BC" d="M517.331,187.301c5.168,6.461,4.162,13.906,6.005,16.601
					c2.523-1.993,7.609-16.285,6.668-20.022C527.141,183.472,519.416,186.32,517.331,187.301z"/>
				<g id="Group_20_1_">
					<path marker-end="none" marker-start="none" fill="#D9D3BC" d="M535.375,183.986c-3.252-19.824-17.203-28.214-39.034-29.458
						c-25.118,2.08-34.773,16.309-39.032,31.299c-0.277,5.494,0.552,14.181,2.375,14.48c1.969,0.323,7.027-12.896,8.999-12.623
						c18.987,2.648,37.812,2.031,56.022-0.909c1.799-0.29,5.962,9.722,7.74,9.26C534.225,195.575,535.097,188.082,535.375,183.986z"
						/>
					<a>
						<path marker-end="none" marker-start="none" fill="#D9D3BC" d="M469.569,164.852l1.841-1.571
							c1.689-1.316,3.552-2.521,5.605-3.591l1.345-0.625l0.008,0.256c0.255,8.123,0.616,19.394-6.329,22.088
							c-2.888-5.46-2.925-10.537-2.521-15.935L469.569,164.852z"/>
					</a>
					<a>
						<path marker-end="none" marker-start="none" fill="#D9D3BC" d="M492.203,155.006l1.827-0.246
							c0.756-0.089,1.525-0.166,2.311-0.231c1.364,0.078,2.698,0.185,4,0.319l1.96,0.252l0.049,1.646
							c0.253,9.469,0.029,21.235-7.672,24.225c-4.162-7.872-3.395-15.083-2.7-23.087L492.203,155.006z"/>
					</a>
					<a>
						<path marker-end="none" marker-start="none" fill="#D9D3BC" d="M515.632,158.425l1.795,0.745
							c2.911,1.351,5.508,3.01,7.772,5.005l0.353,0.345l-0.162,3.638c-0.542,6.295-2.292,11.991-7.255,13.918
							c-4.021-7.607-3.279-14.577-2.608-22.313L515.632,158.425z"/>
					</a>
				</g>
				<path marker-end="none" marker-start="none" fill="#D9D3BC" d="M540.326,229.986c-2.483-0.103-3.361-1.455-2.356-4.271
					l12.961-39.032c1.888-3.034,3.661-4.117,5.154-0.442l15.173,38.738c0.333,2.889-0.719,4.591-3.094,5.155L540.326,229.986z"/>
				<path marker-end="none" marker-start="none" fill="#D9D3BC" d="M551.151,218.427v32.403h6.479v-32.403H551.151z"/>
				<path marker-end="none" marker-start="none" fill="#D9D3BC" d="M544.581,270.52l1.841-8.1c-4.236-5.4-4.691-11.459,0-18.412
					c7.632-5.024,11.605-0.907,15.096,4.418c3.397,11.563-4.501,19.739-8.469,29.09L544.581,270.52z"/>
				<path marker-end="none" marker-start="none" fill="#D9D3BC" d="M444.505,374.523c5.133-3.643,12.257-2.433,15.899,2.7
					c3.644,5.133,2.434,12.257-2.699,15.9c-5.134,3.643-12.258,2.433-15.9-2.7S439.372,378.167,444.505,374.523z"/>
				<path marker-end="none" marker-start="none" fill="#D9D3BC" d="M495.974,280.831l-13.669-47.007
					c-15.425,10.58-26.953,16.917-32.7,33.301c-2.57,8.861-9.787,100.409-7.5,108.299c5.814,1.943,19.076,1.88,25.8-2.101
					c25.869-15.309,47.964-63.382,50.7-41.399c0.534,4.287,12.72,2.371,18.9-3.601c6.763-6.046,13.319-40.966,18.122-51.91
					l-10.68-9.942l-7.742,12.354c2.1-30.898-10.703-35.508-25.398-44.757L495.974,280.831z"/>
				<path marker-end="none" marker-start="none" fill="#D9D3BC" d="M473.77,237.178l5.155,46.029l33.51,0.366l3.681-49.71
					l9.574,7.365l-3.981,230.035h-60.601l2.72-225.985L473.77,237.178z"/>
				
					<path fill="#D9D3BC" stroke="#9FBFD1" stroke-width="8" stroke-linecap="round" stroke-linejoin="round" stroke-miterlimit="79.8403" d="
					M492.205,385.624l0.3,82.5"/>
				<path marker-end="none" marker-start="none" fill="#D9D3BC" d="M474.505,300.467v21.515c0,2.341,1.9,4.242,4.242,4.242h31.415
					c2.341,0,4.241-1.901,4.241-4.242v-21.515c0-2.341-1.9-4.242-4.241-4.242h-31.415
					C476.406,296.224,474.505,298.126,474.505,300.467z"/>
				<path marker-end="none" marker-start="none" fill="#D9D3BC" d="M477.092,301.508l6.279,5.613
					c0.936,0.836,2.458,2.195,3.394,3.031l6.278,5.612c0.868,0.776,2.279,0.776,3.147,0l6.279-5.612
					c0.936-0.836,2.458-2.195,3.394-3.031l6.279-5.613c0.868-0.776,0.628-1.407-0.537-1.407h-14.712c-1.256,0-3.296,0-4.552,0
					h-14.713C476.464,300.1,476.224,300.731,477.092,301.508z"/>
				<path marker-end="none" marker-start="none" fill="#D9D3BC" d="M492.633,305.696c1.348-1.095,3.332-0.89,4.428,0.458
					c1.095,1.349,0.891,3.332-0.458,4.429c-1.348,1.095-3.332,0.89-4.428-0.458C491.08,308.776,491.285,306.793,492.633,305.696z"/>
				<g id="Group_21_1_">
					<path marker-end="none" marker-start="none" fill="#D9D3BC" d="M459.505,464.824l32.7,3.6l32.699-2.1l1.801,28.199
						c21.723,26.415,3.174,30.33-36.601,14.4c-26.565,14.976-61.726,11.976-31.5-15L459.505,464.824z"/>
					<a>
						<path marker-end="none" marker-start="none" fill="#D9D3BC" d="M490.105,508.924c-18.265,10.296-40.591,12.096-42.938,3.449
							l-0.113-0.727l3.173,0.511c16.293,2.148,28.718-3.253,40.539-9.833c11.469,6.51,24.245,11.416,41.589,10.716l3.488-0.213
							l0.011-0.05C534.762,521.448,517.448,519.876,490.105,508.924z"/>
					</a>
				</g>
				<path marker-end="none" marker-start="none" fill="#D9D3BC" d="M459.08,480.156v4.915c5.878-1.503,12.756,0.693,18.258,1.825
					v-4.915C472.017,480.264,465.142,478.163,459.08,480.156z"/>
				<path marker-end="none" marker-start="none" fill="#D9D3BC" d="M458.799,490.339v4.915c5.878-1.502,12.756,0.694,18.258,1.826
					v-4.915C471.736,490.448,464.861,488.345,458.799,490.339z"/>
				<path marker-end="none" marker-start="none" fill="#D9D3BC" d="M526.496,480.456v4.915c-5.878-1.502-12.757,0.693-18.259,1.826
					v-4.915C513.559,480.564,520.434,478.463,526.496,480.456z"/>
				<path marker-end="none" marker-start="none" fill="#D9D3BC" d="M526.777,490.638v4.915c-5.878-1.502-12.756,0.694-18.258,1.826
					v-4.915C513.84,490.748,520.715,488.645,526.777,490.638z"/>
			</g>
		</g>
		<rect x="472.169" y="224.463" fill="#D9D3BC" width="29.457" height="46.954"/>
		<path marker-end="none" marker-start="none" fill="#D6A529" d="M447.518,176.175l76.225-2.577
			c0.147,16.135-5.019,23.998-13.623,26.514l-49.344,0.736C451.02,200.629,447.513,191.036,447.518,176.175z"/>
		<path marker-end="none" marker-start="none" fill="#FFFFFF" d="M467.034,168.896c11.789-12.648,29.771-11.239,40.139,3.146
			c4.235,5.877,6.547,13.016,6.997,20.267c5.723,4,4.617,11.804-1.684,14.698c-1.582,5.232-4.221,10.071-7.892,14.01
			c-11.788,12.646-29.771,11.237-40.138-3.147c-2.274-3.157-3.996-6.68-5.17-10.389c-8.257-4.363-5.28-14.638-1.865-14.383
			C457.817,184.105,461.061,175.306,467.034,168.896z"/>
		<path marker-end="none" marker-start="none" fill="#C0BDAF" d="M459.836,183.438l53.024-1.326l-2.063-7.807l-49.49,0.146
			L459.836,183.438z"/>
		<path marker-end="none" marker-start="none" fill="#302200" d="M452.676,176.544c-2.189,5.357,1.309,16.51,4.003,19.838
			c2.964-3.904,5.752-15.607,9.62-17.995C463.082,178.944,453.239,177.281,452.676,176.544z"/>
		<path marker-end="none" marker-start="none" fill="#302200" d="M507.173,177.648c5.168,6.461,4.162,13.906,6.005,16.601
			c2.523-1.993,7.609-16.285,6.668-20.022C516.983,173.82,509.258,176.668,507.173,177.648z"/>
		<g id="Group_20">
			<path marker-end="none" marker-start="none" fill="#F6DA5A" d="M525.217,174.334c-3.252-19.824-17.203-28.214-39.034-29.458
				c-25.118,2.08-34.773,16.309-39.032,31.299c-0.277,5.494,0.552,14.181,2.375,14.48c1.969,0.323,7.027-12.896,8.999-12.623
				c18.987,2.648,37.812,2.031,56.022-0.909c1.799-0.29,5.962,9.722,7.74,9.26C524.067,185.923,524.939,178.429,525.217,174.334z"/>
			<a>
				<path marker-end="none" marker-start="none" fill="#FAEA96" d="M459.41,155.2l1.841-1.571c1.689-1.316,3.552-2.521,5.605-3.591
					l1.345-0.625l0.008,0.256c0.255,8.123,0.616,19.394-6.329,22.088c-2.888-5.46-2.925-10.537-2.521-15.935L459.41,155.2z"/>
			</a>
			<a>
				<path marker-end="none" marker-start="none" fill="#FAEA96" d="M482.045,145.353l1.827-0.246
					c0.756-0.089,1.525-0.166,2.311-0.231c1.364,0.078,2.698,0.185,4,0.319l1.96,0.252l0.049,1.646
					c0.253,9.469,0.029,21.235-7.672,24.225c-4.162-7.872-3.395-15.083-2.7-23.087L482.045,145.353z"/>
			</a>
			<a>
				<path marker-end="none" marker-start="none" fill="#FAEA96" d="M505.474,148.772l1.795,0.745
					c2.911,1.351,5.508,3.01,7.772,5.005l0.353,0.345l-0.162,3.638c-0.542,6.295-2.292,11.991-7.255,13.918
					c-4.021-7.607-3.279-14.577-2.608-22.313L505.474,148.772z"/>
			</a>
		</g>
		<path marker-end="none" marker-start="none" fill="#AFAEAC" d="M530.168,220.334c-2.483-0.103-3.361-1.455-2.356-4.271
			l12.961-39.032c1.888-3.034,3.661-4.117,5.154-0.442l15.173,38.738c0.333,2.889-0.719,4.591-3.094,5.155L530.168,220.334z"/>
		<path marker-end="none" marker-start="none" fill="#9FBFD1" d="M540.992,208.774v32.403h6.479v-32.403H540.992z"/>
		<path marker-end="none" marker-start="none" fill="#FFFFFF" d="M534.423,260.868l1.841-8.1c-4.236-5.4-4.691-11.459,0-18.412
			c7.632-5.024,11.605-0.907,15.096,4.418c3.397,11.563-4.501,19.739-8.469,29.09L534.423,260.868z"/>
		<path marker-end="none" marker-start="none" fill="#FFFFFF" d="M434.347,364.871c5.133-3.643,12.257-2.433,15.899,2.7
			c3.644,5.133,2.434,12.257-2.699,15.9c-5.134,3.643-12.258,2.433-15.9-2.7S429.214,368.514,434.347,364.871z"/>
		<path marker-end="none" marker-start="none" fill="#E9B2B2" d="M485.816,271.178l-13.669-47.007
			c-15.425,10.58-26.953,16.917-32.7,33.301c-2.57,8.861-9.787,100.409-7.5,108.299c5.814,1.943,19.076,1.88,25.8-2.101
			c25.869-15.309,47.964-63.382,50.7-41.399c0.534,4.287,12.72,2.371,18.9-3.601c6.763-6.046,13.319-40.966,18.122-51.91
			l-10.68-9.942l-7.742,12.354c2.1-30.898-10.703-35.508-25.398-44.757L485.816,271.178z"/>
		<path marker-end="none" marker-start="none" fill="#759AAF" d="M463.612,227.526l5.155,46.029l33.51,0.366l3.681-49.71
			l9.574,7.365l-3.981,230.035h-60.601l2.72-225.985L463.612,227.526z"/>
		
			<path fill="none" stroke="#9FBFD1" stroke-width="8" stroke-linecap="round" stroke-linejoin="round" stroke-miterlimit="79.8403" d="
			M482.047,375.971l0.3,82.5"/>
		<path marker-end="none" marker-start="none" fill="#FFFFFF" d="M464.347,290.814v21.515c0,2.341,1.9,4.242,4.242,4.242h31.415
			c2.341,0,4.241-1.901,4.241-4.242v-21.515c0-2.341-1.9-4.242-4.241-4.242h-31.415
			C466.247,286.572,464.347,288.473,464.347,290.814z"/>
		<path marker-end="none" marker-start="none" fill="#7AA1B7" d="M466.934,291.855l6.279,5.613c0.936,0.836,2.458,2.195,3.394,3.031
			l6.278,5.612c0.868,0.776,2.279,0.776,3.147,0l6.279-5.612c0.936-0.836,2.458-2.195,3.394-3.031l6.279-5.613
			c0.868-0.776,0.628-1.407-0.537-1.407h-14.712c-1.256,0-3.296,0-4.552,0h-14.713C466.306,290.448,466.066,291.079,466.934,291.855
			z"/>
		<path marker-end="none" marker-start="none" fill="#E7F3FB" d="M482.475,296.044c1.348-1.095,3.332-0.89,4.428,0.458
			c1.095,1.349,0.891,3.332-0.458,4.429c-1.348,1.095-3.332,0.89-4.428-0.458C480.922,299.124,481.127,297.14,482.475,296.044z"/>
		<g id="Group_21">
			<path marker-end="none" marker-start="none" fill="#F6DA5A" d="M449.347,455.172l32.7,3.6l32.699-2.1l1.801,28.199
				c21.723,26.415,3.174,30.33-36.601,14.4c-26.565,14.976-61.726,11.976-31.5-15L449.347,455.172z"/>
			<a>
				<path marker-end="none" marker-start="none" fill="#4C4C4C" d="M479.947,499.271c-18.265,10.296-40.591,12.096-42.938,3.449
					l-0.113-0.727l3.173,0.511c16.293,2.148,28.718-3.253,40.539-9.833c11.469,6.51,24.245,11.416,41.589,10.716l3.488-0.213
					l0.011-0.05C524.604,511.796,507.29,510.223,479.947,499.271z"/>
			</a>
		</g>
		<path marker-end="none" marker-start="none" fill="#4C4C4C" d="M448.922,470.504v4.915c5.878-1.503,12.756,0.693,18.258,1.825
			v-4.915C461.859,470.612,454.984,468.51,448.922,470.504z"/>
		<path marker-end="none" marker-start="none" fill="#4C4C4C" d="M448.641,480.686v4.915c5.878-1.502,12.756,0.694,18.258,1.826
			v-4.915C461.577,480.796,454.702,478.693,448.641,480.686z"/>
		<path marker-end="none" marker-start="none" fill="#4C4C4C" d="M516.338,470.803v4.915c-5.878-1.502-12.757,0.693-18.259,1.826
			v-4.915C503.401,470.912,510.276,468.81,516.338,470.803z"/>
		<path marker-end="none" marker-start="none" fill="#4C4C4C" d="M516.618,480.986v4.915c-5.878-1.502-12.756,0.694-18.258,1.826
			v-4.915C503.682,481.095,510.557,478.993,516.618,480.986z"/>
	</g>
</g>
</svg>
