<?xml version="1.0" encoding="utf-8"?>
<!-- Generator: Adobe Illustrator 16.0.0, SVG Export Plug-In . SVG Version: 6.00 Build 0)  -->
<!DOCTYPE svg PUBLIC "-//W3C//DTD SVG 1.1//EN" "http://www.w3.org/Graphics/SVG/1.1/DTD/svg11.dtd">
<svg version="1.1" id="Layer_1" xmlns="http://www.w3.org/2000/svg" xmlns:xlink="http://www.w3.org/1999/xlink" x="0px" y="0px"
	 width="845.201px" height="273.916px" viewBox="57.744 147.177 845.201 273.916"
	 enable-background="new 57.744 147.177 845.201 273.916" xml:space="preserve">
<filter  id="StainedFilter">
	<feBlend  result="blend" in="SourceGraphic" in2="BackgroundImage" mode="multiply"></feBlend>
	<feComposite  operator="in" result="comp" in="blend" in2="SourceAlpha"></feComposite>
</filter>
<g>
	<defs>
		<rect id="SVGID_1_" x="0.069" y="-1.668" width="959.999" height="542.399"/>
	</defs>
	<clipPath id="SVGID_2_">
		<use xlink:href="#SVGID_1_"  overflow="visible"/>
	</clipPath>
</g>
<g id="Shape" marker-end="none" marker-start="none" filter="url(#StainedFilter)">
	<rect x="0.069" y="-1.668" fill="none" width="959.999" height="542.399"/>
</g>
<g>
	<path marker-end="none" marker-start="none" fill="#E6CF79" d="M731.046,213.071v152.401h27.9V213.071H731.046z"/>
	
		<path fill="none" stroke="#6D6D6D" stroke-width="3" stroke-linecap="round" stroke-linejoin="round" stroke-miterlimit="79.8403" d="
		M759.246,364.606V202.425"/>
	<path marker-end="none" marker-start="none" fill="#FFFFFF" d="M817.746,181.87v183.903h22.199V181.87H817.746z"/>
	<path marker-end="none" marker-start="none" fill="#AFD084" d="M725.347,363.672v3.899h98.099v-3.899H725.347z"/>
	<path marker-end="none" marker-start="none" fill="#AD9EC4" d="M610.146,270.972v94.799h29.101v-94.799H610.146z"/>
	<path marker-end="none" marker-start="none" fill="#FFFFFF" d="M709.147,213.07v150.303h19.799V213.07H709.147z"/>
	<path marker-end="none" marker-start="none" fill="#AFD084" d="M605.946,363.072v3.899h106.501v-3.899H605.946z"/>
	<path marker-end="none" marker-start="none" fill="#EFDB72" d="M132.247,340.571v24.301h21.599v-24.301H132.247z"/>
	
		<path fill="none" stroke="#6D6D6D" stroke-width="3" stroke-linecap="round" stroke-linejoin="round" stroke-miterlimit="79.8403" d="
		M154.156,363.985v-29.432"/>
	<path marker-end="none" marker-start="none" fill="#D3766B" d="M183.247,336.371v28.501h21.599v-28.501H183.247z"/>
	<path marker-end="none" marker-start="none" fill="#FFFFFF" d="M113.647,353.772v13.799h19.799v-13.799H113.647z"/>
	<path marker-end="none" marker-start="none" fill="#FFFFFF" d="M204.547,340.571v27.001h19.799v-27.001H204.547z"/>
	<path marker-end="none" marker-start="none" fill="#AFD084" d="M128.647,363.672v3.899h79.799v-3.899H128.647z"/>
	<path marker-end="none" marker-start="none" fill="#6BD3A8" d="M311.647,318.372v45.899h19.499v-45.899H311.647z"/>
	<path marker-end="none" marker-start="none" fill="#E6CF79" d="M406.147,307.872v56.999h23.099v-56.999H406.147z"/>
	
		<path fill="none" stroke="#6D6D6D" stroke-width="3" stroke-linecap="round" stroke-linejoin="round" stroke-miterlimit="79.8403" d="
		M430.147,364.572v-83.106"/>
	<path marker-end="none" marker-start="none" fill="#ACCE7D" d="M500.646,304.871v59.701h29.101v-59.701H500.646z"/>
	<path marker-end="none" marker-start="none" fill="#E6CF79" d="M673.446,242.471v121.2h35.102v-121.2H673.446z"/>
	<path marker-end="none" marker-start="none" fill="#FFFFFF" d="M589.147,234.07v130.503h19.799V234.07H589.147z"/>
	<path marker-end="none" marker-start="none" fill="#8A8A8A" d="M60.031,388.694v23.999h837.6v-23.999H60.031z"/>
	<path marker-end="none" marker-start="none" fill="#AFD084" d="M60.031,411.494v9.6h837.6v-9.6H60.031z"/>
	
		<path fill="none" stroke="#FFFFFF" stroke-width="3" stroke-linecap="round" stroke-linejoin="round" stroke-miterlimit="79.8403" stroke-dasharray="24,24" d="
		M59.244,397.105h836.967"/>
	<path marker-end="none" marker-start="none" fill="#7DA2B7" d="M800.271,370.855v29.398l10.199-0.06v-29.399L800.271,370.855z"/>
	<path marker-end="none" marker-start="none" fill="#717171" d="M795.981,401.111L795.981,401.111c0,1.391,1.129,2.52,2.52,2.52
		h13.681c1.39,0,2.519-1.129,2.519-2.519v-0.001c0-1.39-1.129-2.52-2.519-2.52H798.5
		C797.11,398.592,795.981,399.721,795.981,401.111z"/>
	<path marker-end="none" marker-start="none" fill="#A5CBDB" d="M789.245,199.871v164.401h29.102V199.871H789.245z"/>
	<path marker-end="none" marker-start="none" fill="#95C3DC" d="M798.141,360.637v17.469c0,1.9,1.544,3.445,3.445,3.445h7.509
		c1.9,0,3.444-1.545,3.444-3.445v-17.469c0-1.901-1.544-3.445-3.444-3.445h-7.509C799.685,357.192,798.141,358.736,798.141,360.637z
		"/>
	<path marker-end="none" marker-start="none" fill="#FFFFFF" d="M802.39,344.915c2.826-2.151,6.61-1.212,8.448,2.101
		c1.837,3.312,1.033,7.748-1.792,9.899c-2.826,2.152-6.611,1.212-8.448-2.1C798.761,351.503,799.564,347.067,802.39,344.915z"/>
	<path marker-end="none" marker-start="none" fill="#EADB8A" d="M801.26,341.283c2.978-3.184,7.394-2.702,9.854,1.075
		c1.132,1.739,1.654,3.873,1.6,5.98l-13.991,0.178C798.654,345.841,799.522,343.142,801.26,341.283z"/>
	<path marker-end="none" marker-start="none" fill="#7DA2B7" d="M157.072,370.355v29.398l10.199-0.06v-29.399L157.072,370.355z"/>
	<path marker-end="none" marker-start="none" fill="#717171" d="M152.782,400.611L152.782,400.611c0,1.391,1.129,2.52,2.519,2.52
		h13.681c1.391,0,2.52-1.129,2.52-2.519v-0.001c0-1.39-1.129-2.52-2.52-2.52h-13.681
		C153.911,398.092,152.782,399.221,152.782,400.611z"/>
	<path marker-end="none" marker-start="none" fill="#EADB8A" d="M154.942,360.137v17.469c0,1.9,1.544,3.445,3.445,3.445h7.509
		c1.901,0,3.445-1.545,3.445-3.445v-17.469c0-1.901-1.544-3.445-3.445-3.445h-7.509
		C156.486,356.692,154.942,358.236,154.942,360.137z"/>
	<path marker-end="none" marker-start="none" fill="#FFFFFF" d="M159.191,344.415c2.826-2.151,6.611-1.212,8.448,2.101
		c1.837,3.312,1.034,7.748-1.792,9.899c-2.826,2.152-6.611,1.212-8.448-2.1C155.562,351.003,156.365,346.567,159.191,344.415z"/>
	<path marker-end="none" marker-start="none" fill="#EADB8A" d="M158.061,340.783c2.979-3.184,7.395-2.702,9.854,1.075
		c1.132,1.739,1.653,3.873,1.599,5.98l-13.991,0.178C155.455,345.341,156.323,342.642,158.061,340.783z"/>
	<path marker-end="none" marker-start="none" fill="#FFFFFF" d="M138.669,352.216v22.199h13.499v-22.199H138.669z"/>
	<path marker-end="none" marker-start="none" fill="#EADB8A" d="M144.369,364.506v4.52c0,0.491,0.398,0.89,0.89,0.89h15.619
		c0.491,0,0.89-0.398,0.89-0.89v-4.52c0-0.49-0.398-0.89-0.89-0.89h-15.619C144.768,363.616,144.369,364.015,144.369,364.506z"/>
	<path marker-end="none" marker-start="none" fill="#7DA2B7" d="M412.172,370.855v29.398l10.198-0.06v-29.399L412.172,370.855z"/>
	<path marker-end="none" marker-start="none" fill="#717171" d="M407.882,401.111L407.882,401.111c0,1.391,1.129,2.52,2.519,2.52
		h13.681c1.391,0,2.52-1.129,2.52-2.519v-0.001c0-1.39-1.129-2.52-2.52-2.52h-13.681
		C409.011,398.592,407.882,399.721,407.882,401.111z"/>
	<path marker-end="none" marker-start="none" fill="#FFFFFF" d="M384.547,282.071v83.701h19.799v-83.701H384.547z"/>
	<g id="Group_18">
		
			<path fill="none" stroke="#95C3DC" stroke-width="2" stroke-linecap="round" stroke-linejoin="round" stroke-miterlimit="79.8403" d="
			M383.647,294.372h21.9"/>
		
			<path fill="none" stroke="#95C3DC" stroke-width="2" stroke-linecap="round" stroke-linejoin="round" stroke-miterlimit="79.8403" d="
			M383.947,307.571h21.9"/>
		
			<path fill="none" stroke="#95C3DC" stroke-width="2" stroke-linecap="round" stroke-linejoin="round" stroke-miterlimit="79.8403" d="
			M383.947,321.071h21.9"/>
		
			<path fill="none" stroke="#95C3DC" stroke-width="2" stroke-linecap="round" stroke-linejoin="round" stroke-miterlimit="79.8403" d="
			M383.947,335.771h21.9"/>
		
			<path fill="none" stroke="#95C3DC" stroke-width="2" stroke-linecap="round" stroke-linejoin="round" stroke-miterlimit="79.8403" d="
			M383.947,350.471h21.9"/>
	</g>
	
		<path fill="none" stroke="#6D6D6D" stroke-width="3" stroke-linecap="round" stroke-linejoin="round" stroke-miterlimit="79.8403" d="
		M405.547,363.665v-97.191"/>
	<path marker-end="none" marker-start="none" fill="#FFFFFF" d="M479.347,255.67v109.503h19.799V255.67H479.347z"/>
	<g id="Group_19">
		
			<path fill="none" stroke="#95C3DC" stroke-width="2" stroke-linecap="round" stroke-linejoin="round" stroke-miterlimit="79.8403" d="
			M478.447,268.572h21.9"/>
		
			<path fill="none" stroke="#95C3DC" stroke-width="2" stroke-linecap="round" stroke-linejoin="round" stroke-miterlimit="79.8403" d="
			M478.746,281.771h21.9"/>
		
			<path fill="none" stroke="#95C3DC" stroke-width="2" stroke-linecap="round" stroke-linejoin="round" stroke-miterlimit="79.8403" d="
			M478.746,295.271h21.9"/>
		
			<path fill="none" stroke="#95C3DC" stroke-width="2" stroke-linecap="round" stroke-linejoin="round" stroke-miterlimit="79.8403" d="
			M478.746,309.971h21.9"/>
		
			<path fill="none" stroke="#95C3DC" stroke-width="2" stroke-linecap="round" stroke-linejoin="round" stroke-miterlimit="79.8403" d="
			M478.746,324.671h21.9"/>
		
			<path fill="none" stroke="#95C3DC" stroke-width="2" stroke-linecap="round" stroke-linejoin="round" stroke-miterlimit="79.8403" d="
			M478.147,338.771h21.9"/>
		
			<path fill="none" stroke="#95C3DC" stroke-width="2" stroke-linecap="round" stroke-linejoin="round" stroke-miterlimit="79.8403" d="
			M477.847,351.671h21.899"/>
	</g>
	<path marker-end="none" marker-start="none" fill="#AFD084" d="M401.647,363.372v3.899h81.299v-3.899H401.647z"/>
	<path marker-end="none" marker-start="none" fill="#95DCB6" d="M410.041,360.637v17.469c0,1.9,1.545,3.445,3.445,3.445h7.509
		c1.901,0,3.445-1.545,3.445-3.445v-17.469c0-1.901-1.544-3.445-3.445-3.445h-7.509
		C411.586,357.192,410.041,358.736,410.041,360.637z"/>
	<path marker-end="none" marker-start="none" fill="#FFFFFF" d="M414.29,344.915c2.826-2.151,6.611-1.212,8.448,2.101
		c1.837,3.312,1.034,7.748-1.792,9.899c-2.826,2.152-6.61,1.212-8.448-2.1C410.661,351.503,411.465,347.067,414.29,344.915z"/>
	<path marker-end="none" marker-start="none" fill="#EADB8A" d="M413.16,341.283c2.979-3.184,7.395-2.702,9.854,1.075
		c1.132,1.739,1.654,3.873,1.599,5.98l-13.991,0.178C410.555,345.841,411.423,343.142,413.16,341.283z"/>
	<path marker-end="none" marker-start="none" fill="#7DA2B7" d="M538.472,371.755v29.399l10.199-0.06v-29.399L538.472,371.755z"/>
	<path marker-end="none" marker-start="none" fill="#717171" d="M534.182,402.011L534.182,402.011c0,1.391,1.129,2.52,2.519,2.52
		h13.682c1.39,0,2.519-1.129,2.519-2.519v-0.001c0-1.391-1.129-2.52-2.519-2.52H536.7
		C535.311,399.492,534.182,400.621,534.182,402.011z"/>
	<path marker-end="none" marker-start="none" fill="#ACCE7D" d="M500.346,260.471v45.001h12.601v-45.001H500.346z"/>
	
		<path fill="none" stroke="#6D6D6D" stroke-width="3" stroke-linecap="round" stroke-linejoin="round" stroke-miterlimit="79.8403" d="
		M500.647,363.43V245.238"/>
	
		<path fill="none" stroke="#6D6D6D" stroke-width="3" stroke-linecap="round" stroke-linejoin="round" stroke-miterlimit="79.8403" d="
		M529.447,363.008v-98.755"/>
	<path marker-end="none" marker-start="none" fill="#AD9EC4" d="M563.347,255.372v109.499h25.199V255.372H563.347z"/>
	
		<path fill="none" stroke="#6D6D6D" stroke-width="3" stroke-linecap="round" stroke-linejoin="round" stroke-miterlimit="79.8403" d="
		M563.947,364.478V235.015"/>
	<path marker-end="none" marker-start="none" fill="#AD9EC4" d="M580.746,233.473v24.599h8.1v-24.599H580.746z"/>
	<g id="Group_20">
		<g id="Group_21">
			
				<path fill="none" stroke="#95C3DC" stroke-width="2" stroke-linecap="round" stroke-linejoin="round" stroke-miterlimit="79.8403" d="
				M588.246,247.872h21.9"/>
			
				<path fill="none" stroke="#95C3DC" stroke-width="2" stroke-linecap="round" stroke-linejoin="round" stroke-miterlimit="79.8403" d="
				M588.547,261.071h21.899"/>
			
				<path fill="none" stroke="#95C3DC" stroke-width="2" stroke-linecap="round" stroke-linejoin="round" stroke-miterlimit="79.8403" d="
				M588.547,274.571h21.899"/>
			
				<path fill="none" stroke="#95C3DC" stroke-width="2" stroke-linecap="round" stroke-linejoin="round" stroke-miterlimit="79.8403" d="
				M588.547,289.271h21.899"/>
			
				<path fill="none" stroke="#95C3DC" stroke-width="2" stroke-linecap="round" stroke-linejoin="round" stroke-miterlimit="79.8403" d="
				M588.547,303.971h21.899"/>
			
				<path fill="none" stroke="#95C3DC" stroke-width="2" stroke-linecap="round" stroke-linejoin="round" stroke-miterlimit="79.8403" d="
				M587.947,318.071h21.9"/>
			
				<path fill="none" stroke="#95C3DC" stroke-width="2" stroke-linecap="round" stroke-linejoin="round" stroke-miterlimit="79.8403" d="
				M587.647,330.971h21.9"/>
		</g>
		
			<path fill="none" stroke="#95C3DC" stroke-width="2" stroke-linecap="round" stroke-linejoin="round" stroke-miterlimit="79.8403" d="
			M587.569,343.931h21.9"/>
	</g>
	
		<path fill="none" stroke="#6D6D6D" stroke-width="3" stroke-linecap="round" stroke-linejoin="round" stroke-miterlimit="79.8403" d="
		M588.246,363.726V220.288"/>
	<path marker-end="none" marker-start="none" fill="#AFD084" d="M496.147,363.372v3.899h95.999v-3.899H496.147z"/>
	<path marker-end="none" marker-start="none" fill="#B195DC" d="M536.462,361.537v17.469c0,1.901,1.544,3.445,3.444,3.445h7.51
		c1.9,0,3.444-1.544,3.444-3.445v-17.469c0-1.9-1.544-3.445-3.444-3.445h-7.51C538.006,358.092,536.462,359.636,536.462,361.537z"/>
	<path marker-end="none" marker-start="none" fill="#FFFFFF" d="M540.591,345.815c2.825-2.152,6.61-1.212,8.447,2.1
		c1.837,3.313,1.034,7.748-1.792,9.9c-2.825,2.151-6.61,1.212-8.447-2.101C536.962,352.403,537.765,347.967,540.591,345.815z"/>
	<path marker-end="none" marker-start="none" fill="#EADB8A" d="M539.461,342.183c2.978-3.185,7.394-2.702,9.854,1.074
		c1.132,1.739,1.654,3.873,1.599,5.981l-13.99,0.177C536.855,346.741,537.723,344.042,539.461,342.183z"/>
	<path marker-end="none" marker-start="none" fill="#DCC695" d="M523.849,369.396v10.199h40.499v-10.199H523.849z"/>
	<path marker-end="none" marker-start="none" fill="#FFFFFF" d="M539.843,376.116c1.576-0.925,3.688-0.52,4.712,0.903
		c1.023,1.423,0.576,3.33-1,4.255s-3.688,0.52-4.712-0.903C537.819,378.948,538.267,377.041,539.843,376.116z"/>
	<path marker-end="none" marker-start="none" fill="#B195DC" d="M538.502,362.592v14.64h6.238v-14.64H538.502z"/>
	<path marker-end="none" marker-start="none" fill="#7DA2B7" d="M656.73,372.555v29.398l-10.199-0.06v-29.399L656.73,372.555z"/>
	<path marker-end="none" marker-start="none" fill="#717171" d="M661.02,402.811L661.02,402.811c0,1.391-1.129,2.52-2.52,2.52
		H644.82c-1.39,0-2.519-1.129-2.519-2.519v-0.001c0-1.391,1.129-2.52,2.519-2.52H658.5
		C659.891,400.292,661.02,401.421,661.02,402.811z"/>
	<path marker-end="none" marker-start="none" fill="#EADB8A" d="M658.86,362.337v17.47c0,1.9-1.544,3.444-3.445,3.444h-7.509
		c-1.9,0-3.444-1.544-3.444-3.444v-17.47c0-1.9,1.544-3.444,3.444-3.444h7.509C657.316,358.892,658.86,360.436,658.86,362.337z"/>
	<path marker-end="none" marker-start="none" fill="#FFFFFF" d="M654.611,346.615c-2.826-2.152-6.61-1.212-8.448,2.1
		c-1.837,3.313-1.033,7.748,1.792,9.9c2.826,2.152,6.611,1.212,8.448-2.1C658.24,353.203,657.437,348.767,654.611,346.615z"/>
	<path marker-end="none" marker-start="none" fill="#EADB8A" d="M655.74,342.983c-2.978-3.185-7.394-2.702-9.854,1.075
		c-1.132,1.738-1.654,3.873-1.6,5.98l13.991,0.177C658.347,347.541,657.479,344.842,655.74,342.983z"/>
	
		<path fill="none" stroke="#6D6D6D" stroke-width="3" stroke-linecap="round" stroke-linejoin="round" stroke-miterlimit="79.8403" d="
		M673.547,365.274V218.219"/>
	<path marker-end="none" marker-start="none" fill="#FFFFFF" d="M675.133,354.416v22.199h-13.499v-22.199H675.133z"/>
	<path marker-end="none" marker-start="none" fill="#EADB8A" d="M669.433,366.706v4.52c0,0.49-0.399,0.89-0.89,0.89h-15.619
		c-0.491,0-0.891-0.399-0.891-0.89v-4.52c0-0.491,0.399-0.89,0.891-0.89h15.619C669.033,365.816,669.433,366.215,669.433,366.706z"
		/>
	<path marker-end="none" marker-start="none" fill="#FFFFFF" d="M413.242,375.036c1.576-0.925,3.688-0.52,4.712,0.903
		c1.024,1.423,0.576,3.33-1,4.255c-1.575,0.925-3.688,0.52-4.712-0.903C411.219,377.868,411.666,375.961,413.242,375.036z"/>
	<path marker-end="none" marker-start="none" fill="#FFFFFF" d="M436.741,381.911l13.92-8.04l7.32,13.8L436.741,381.911z"/>
	<path marker-end="none" marker-start="none" fill="#7B7B7B" d="M415.85,376.103l-0.8,3.509c0.212-0.101,19.771,5.179,19.531,5.059
		c-0.326,3.73,4.238,8.579,14.521,9.36c5.563,0.245,8.692-2.554,10.439-7.08L415.85,376.103z"/>
	
		<path marker-end="none" marker-start="none" fill="#FFFFFF" stroke="#727673" stroke-width="3" stroke-linecap="round" stroke-miterlimit="79.8403" d="
		M443.464,394.782c1.903-0.859,4.147-0.012,5.007,1.891c0.858,1.904,0.012,4.148-1.892,5.008c-1.903,0.858-4.147,0.012-5.007-1.892
		C440.714,397.885,441.561,395.641,443.464,394.782z"/>
	<path marker-end="none" marker-start="none" fill="#E6CF79" d="M359.647,297.071v67.201h23.099v-67.201H359.647z"/>
	
		<path fill="none" stroke="#6D6D6D" stroke-width="3" stroke-linecap="round" stroke-linejoin="round" stroke-miterlimit="79.8403" d="
		M359.047,364.871v-84.604"/>
	
		<path fill="none" stroke="#6D6D6D" stroke-width="3" stroke-linecap="round" stroke-linejoin="round" stroke-miterlimit="79.8403" d="
		M383.347,363.365v-97.192"/>
	<path marker-end="none" marker-start="none" fill="#ACCE7D" d="M454.147,273.071v91.201h23.099v-91.201H454.147z"/>
	
		<path fill="none" stroke="#6D6D6D" stroke-width="3" stroke-linecap="round" stroke-linejoin="round" stroke-miterlimit="79.8403" d="
		M454.147,362.158V245.734"/>
	
		<path fill="none" stroke="#6D6D6D" stroke-width="3" stroke-linecap="round" stroke-linejoin="round" stroke-miterlimit="79.8403" d="
		M478.447,363.073V244.881"/>
	
		<path fill="none" stroke="#6D6D6D" stroke-width="3" stroke-linecap="round" stroke-linejoin="round" stroke-miterlimit="79.8403" d="
		M513.246,303.611v-57.659"/>
	<path marker-end="none" marker-start="none" fill="#AD9EC4" d="M610.147,234.373v34.797h12.599v-34.797H610.147z"/>
	
		<path fill="none" stroke="#6D6D6D" stroke-width="3" stroke-linecap="round" stroke-linejoin="round" stroke-miterlimit="79.8403" d="
		M610.447,362.615V221.877"/>
	
		<path fill="none" stroke="#6D6D6D" stroke-width="3" stroke-linecap="round" stroke-linejoin="round" stroke-miterlimit="79.8403" d="
		M639.246,363V240.231"/>
	
		<path fill="none" stroke="#6D6D6D" stroke-width="3" stroke-linecap="round" stroke-linejoin="round" stroke-miterlimit="79.8403" d="
		M623.047,269.983v-48.532"/>
	<path marker-end="none" marker-start="none" fill="#E6CF79" d="M699.547,212.473v31.799h8.099v-31.799H699.547z"/>
	<g id="Group_22">
		<g id="Group_23">
			<g id="Group_24">
				
					<path fill="none" stroke="#95C3DC" stroke-width="2" stroke-linecap="round" stroke-linejoin="round" stroke-miterlimit="79.8403" d="
					M708.847,228.672h21.899"/>
				
					<path fill="none" stroke="#95C3DC" stroke-width="2" stroke-linecap="round" stroke-linejoin="round" stroke-miterlimit="79.8403" d="
					M709.147,241.871h21.9"/>
				
					<path fill="none" stroke="#95C3DC" stroke-width="2" stroke-linecap="round" stroke-linejoin="round" stroke-miterlimit="79.8403" d="
					M709.147,255.371h21.9"/>
				
					<path fill="none" stroke="#95C3DC" stroke-width="2" stroke-linecap="round" stroke-linejoin="round" stroke-miterlimit="79.8403" d="
					M709.147,270.071h21.9"/>
				
					<path fill="none" stroke="#95C3DC" stroke-width="2" stroke-linecap="round" stroke-linejoin="round" stroke-miterlimit="79.8403" d="
					M709.147,284.771h21.9"/>
				
					<path fill="none" stroke="#95C3DC" stroke-width="2" stroke-linecap="round" stroke-linejoin="round" stroke-miterlimit="79.8403" d="
					M708.547,298.871h21.899"/>
				
					<path fill="none" stroke="#95C3DC" stroke-width="2" stroke-linecap="round" stroke-linejoin="round" stroke-miterlimit="79.8403" d="
					M708.246,311.771h21.9"/>
			</g>
			
				<path fill="none" stroke="#95C3DC" stroke-width="2" stroke-linecap="round" stroke-linejoin="round" stroke-miterlimit="79.8403" d="
				M708.169,324.731h21.899"/>
		</g>
		
			<path fill="none" stroke="#95C3DC" stroke-width="2" stroke-linecap="round" stroke-linejoin="round" stroke-miterlimit="79.8403" d="
			M707.868,337.931h21.9"/>
		
			<path fill="none" stroke="#95C3DC" stroke-width="2" stroke-linecap="round" stroke-linejoin="round" stroke-miterlimit="79.8403" d="
			M707.868,351.731h21.9"/>
	</g>
	
		<path fill="none" stroke="#6D6D6D" stroke-width="3" stroke-linecap="round" stroke-linejoin="round" stroke-miterlimit="79.8403" d="
		M708.246,361.724V204.29"/>
	
		<path fill="none" stroke="#6D6D6D" stroke-width="3" stroke-linecap="round" stroke-linejoin="round" stroke-miterlimit="79.8403" d="
		M730.447,362.112V204.28"/>
	
		<path fill="none" stroke="#6D6D6D" stroke-width="3" stroke-linecap="round" stroke-linejoin="round" stroke-miterlimit="79.8403" d="
		M698.246,241.984V203.85"/>
	<path marker-end="none" marker-start="none" fill="#6BD3A8" d="M269.647,333.071v31.801h19.499v-31.801H269.647z"/>
	
		<path fill="none" stroke="#6D6D6D" stroke-width="3" stroke-linecap="round" stroke-linejoin="round" stroke-miterlimit="79.8403" d="
		M270.238,362.472v-58.807"/>
	
		<path fill="none" stroke="#6D6D6D" stroke-width="3" stroke-linecap="round" stroke-linejoin="round" stroke-miterlimit="79.8403" d="
		M288.263,364.101v-62.994"/>
	<path marker-end="none" marker-start="none" fill="#AFD084" d="M220.148,363.672v3.899h76.197v-3.899H220.148z"/>
	<path marker-end="none" marker-start="none" fill="#FFFFFF" d="M290.047,320.17v46.503h19.799V320.17H290.047z"/>
	
		<path fill="none" stroke="#6D6D6D" stroke-width="3" stroke-linecap="round" stroke-linejoin="round" stroke-miterlimit="79.8403" d="
		M310.471,361.267v-58.796"/>
	
		<path fill="none" stroke="#6D6D6D" stroke-width="3" stroke-linecap="round" stroke-linejoin="round" stroke-miterlimit="79.8403" d="
		M331.756,362.173v-59.708"/>
	<path marker-end="none" marker-start="none" fill="#7DA2B7" d="M248.272,370.055v29.398l10.199-0.06v-29.399L248.272,370.055z"/>
	<path marker-end="none" marker-start="none" fill="#717171" d="M243.982,400.311L243.982,400.311c0,1.391,1.129,2.52,2.52,2.52
		h13.681c1.39,0,2.52-1.129,2.52-2.519v-0.001c0-1.391-1.13-2.52-2.52-2.52h-13.681
		C245.111,397.792,243.982,398.921,243.982,400.311z"/>
	<path marker-end="none" marker-start="none" fill="#95C3DC" d="M246.142,359.837v17.47c0,1.9,1.544,3.444,3.445,3.444h7.509
		c1.901,0,3.445-1.544,3.445-3.444v-17.47c0-1.9-1.544-3.444-3.445-3.444h-7.509C247.686,356.392,246.142,357.936,246.142,359.837z"
		/>
	<path marker-end="none" marker-start="none" fill="#FFFFFF" d="M250.391,344.115c2.826-2.152,6.611-1.212,8.448,2.1
		c1.837,3.313,1.034,7.748-1.792,9.9s-6.611,1.212-8.448-2.1C246.762,350.703,247.565,346.267,250.391,344.115z"/>
	<path marker-end="none" marker-start="none" fill="#EADB8A" d="M249.261,340.483c2.978-3.185,7.394-2.702,9.854,1.075
		c1.133,1.738,1.654,3.873,1.6,5.98l-13.991,0.177C246.655,345.041,247.523,342.342,249.261,340.483z"/>
	
		<path fill="none" stroke="#6D6D6D" stroke-width="3" stroke-linecap="round" stroke-linejoin="round" stroke-miterlimit="79.8403" d="
		M183.238,363.074v-50.41"/>
	
		<path fill="none" stroke="#6D6D6D" stroke-width="3" stroke-linecap="round" stroke-linejoin="round" stroke-miterlimit="79.8403" d="
		M204.263,363.368V320.17"/>
	<path marker-end="none" marker-start="none" fill="#D3766B" d="M223.447,332.771v31.801h21.6v-31.801H223.447z"/>
	
		<path fill="none" stroke="#6D6D6D" stroke-width="3" stroke-linecap="round" stroke-linejoin="round" stroke-miterlimit="79.8403" d="
		M223.471,361.874v-52.81"/>
	
		<path fill="none" stroke="#6D6D6D" stroke-width="3" stroke-linecap="round" stroke-linejoin="round" stroke-miterlimit="79.8403" d="
		M244.756,362.78v-53.722"/>
	<path marker-end="none" marker-start="none" fill="#EFDB72" d="M92.347,346.872v18.899h21.599v-18.899H92.347z"/>
	
		<path fill="none" stroke="#6D6D6D" stroke-width="3" stroke-linecap="round" stroke-linejoin="round" stroke-miterlimit="79.8403" d="
		M92.638,364.281v-24.924"/>
	
		<path fill="none" stroke="#6D6D6D" stroke-width="3" stroke-linecap="round" stroke-linejoin="round" stroke-miterlimit="79.8403" d="
		M113.663,362.776v-23.114"/>
	
		<path fill="none" stroke="#6D6D6D" stroke-width="3" stroke-linecap="round" stroke-linejoin="round" stroke-miterlimit="79.8403" d="
		M132.871,363.08v-27.922"/>
	<path marker-end="none" marker-start="none" fill="#AFD084" d="M69.547,363.672v3.899h47.699v-3.899H69.547z"/>
	<path marker-end="none" marker-start="none" fill="#AFD084" d="M307.447,363.372v3.899h79.799v-3.899H307.447z"/>
	<path marker-end="none" marker-start="none" fill="#AFD084" d="M835.147,363.672v3.899h67.799v-3.899H835.147z"/>
	<path marker-end="none" marker-start="none" fill="#AFD084" d="M889.797,351.071c2.271-3.974,6.446-4.646,9.316-1.5
		c2.87,3.146,3.355,8.926,1.083,12.9c-2.271,3.974-6.446,4.646-9.316,1.5C888.01,360.825,887.525,355.045,889.797,351.071z"/>
	<path marker-end="none" marker-start="none" fill="#AFD084" d="M773.996,349.571c2.272-3.974,6.447-4.646,9.317-1.5
		c2.87,3.146,3.355,8.926,1.083,12.9c-2.271,3.974-6.447,4.646-9.317,1.5C772.21,359.325,771.725,353.545,773.996,349.571z"/>
	<path marker-end="none" marker-start="none" fill="#AFD084" d="M758.53,353.202c1.902-3.325,5.396-3.887,7.795-1.255
		c2.401,2.632,2.807,7.468,0.905,10.793c-1.902,3.325-5.395,3.887-7.795,1.255C757.033,361.363,756.629,356.527,758.53,353.202z"/>
	<path marker-end="none" marker-start="none" fill="#AFD084" d="M554.983,347.29c2.62-4.583,7.436-5.357,10.745-1.729
		c3.31,3.629,3.869,10.295,1.249,14.878s-7.436,5.357-10.745,1.729C552.922,358.539,552.363,351.873,554.983,347.29z"/>
	<path marker-end="none" marker-start="none" fill="#AFD084" d="M635.19,352.861c1.678-2.935,4.762-3.432,6.881-1.108
		c2.119,2.324,2.478,6.594,0.799,9.528c-1.678,2.935-4.762,3.432-6.881,1.108C633.869,360.065,633.512,355.796,635.19,352.861z"/>
	<path marker-end="none" marker-start="none" fill="#AFD084" d="M526.265,352.376c1.798-3.145,5.102-3.677,7.373-1.187
		c2.271,2.49,2.655,7.063,0.856,10.209c-1.798,3.145-5.102,3.677-7.373,1.187C524.851,360.095,524.467,355.521,526.265,352.376z"/>
	<path marker-end="none" marker-start="none" fill="#AFD084" d="M435.365,352.677c1.798-3.146,5.103-3.678,7.373-1.188
		c2.271,2.49,2.655,7.064,0.857,10.209c-1.798,3.146-5.103,3.677-7.373,1.188C433.95,360.395,433.567,355.821,435.365,352.677z"/>
	<path marker-end="none" marker-start="none" fill="#AFD084" d="M349.565,352.976c1.798-3.146,5.102-3.678,7.373-1.188
		s2.655,7.064,0.857,10.209c-1.799,3.146-5.103,3.677-7.373,1.188C348.151,360.695,347.767,356.121,349.565,352.976z"/>
	<path marker-end="none" marker-start="none" fill="#AFD084" d="M335.948,354.491c1.613-2.82,4.576-3.297,6.612-1.063
		c2.036,2.232,2.38,6.336,0.768,9.155c-1.612,2.82-4.575,3.297-6.611,1.064C334.68,361.414,334.336,357.311,335.948,354.491z"/>
	<path marker-end="none" marker-start="none" fill="#AFD084" d="M172.448,354.191c1.613-2.82,4.576-3.297,6.612-1.064
		c2.036,2.233,2.38,6.336,0.769,9.156c-1.613,2.82-4.576,3.297-6.612,1.064C171.18,361.114,170.836,357.011,172.448,354.191z"/>
	<path marker-end="none" marker-start="none" fill="#AFD084" d="M77.948,354.791c1.613-2.819,4.576-3.297,6.612-1.063
		c2.036,2.232,2.38,6.336,0.769,9.155c-1.613,2.82-4.576,3.298-6.612,1.064S76.336,357.611,77.948,354.791z"/>
	<path marker-end="none" marker-start="none" fill="#7DA2B7" d="M874.671,369.655v29.399l10.198-0.061v-29.398L874.671,369.655z"/>
	<path marker-end="none" marker-start="none" fill="#717171" d="M870.381,399.911L870.381,399.911c0,1.392,1.129,2.521,2.519,2.521
		h13.681c1.391,0,2.52-1.129,2.52-2.52v-0.001c0-1.39-1.129-2.519-2.52-2.519H872.9C871.51,397.392,870.381,398.521,870.381,399.911
		z"/>
	<path marker-end="none" marker-start="none" fill="#95C3DC" d="M872.541,359.437v17.469c0,1.901,1.544,3.445,3.444,3.445h7.509
		c1.901,0,3.445-1.544,3.445-3.445v-17.469c0-1.901-1.544-3.445-3.445-3.445h-7.509
		C874.085,355.992,872.541,357.536,872.541,359.437z"/>
	<path marker-end="none" marker-start="none" fill="#FFFFFF" d="M876.789,343.715c2.826-2.151,6.611-1.212,8.448,2.101
		c1.837,3.312,1.034,7.748-1.792,9.899c-2.826,2.152-6.61,1.213-8.448-2.1C873.16,350.303,873.964,345.867,876.789,343.715z"/>
	<path marker-end="none" marker-start="none" fill="#EADB8A" d="M875.659,340.083c2.979-3.184,7.395-2.702,9.854,1.075
		c1.132,1.739,1.654,3.873,1.599,5.981l-13.991,0.177C873.054,344.641,873.922,341.942,875.659,340.083z"/>
	
		<path fill="none" stroke="#6D6D6D" stroke-width="3" stroke-linecap="round" stroke-linejoin="round" stroke-miterlimit="79.8403" d="
		M94.744,347.171h17.761"/>
	
		<path fill="none" stroke="#6D6D6D" stroke-width="3" stroke-linecap="round" stroke-linejoin="round" stroke-miterlimit="79.8403" d="
		M135.544,340.571h17.761"/>
	
		<path fill="none" stroke="#6D6D6D" stroke-width="3" stroke-linecap="round" stroke-linejoin="round" stroke-miterlimit="79.8403" d="
		M184.444,322.871h17.762"/>
	
		<path fill="none" stroke="#6D6D6D" stroke-width="3" stroke-linecap="round" stroke-linejoin="round" stroke-miterlimit="79.8403" d="
		M185.044,335.471h17.761"/>
	
		<path fill="none" stroke="#6D6D6D" stroke-width="3" stroke-linecap="round" stroke-linejoin="round" stroke-miterlimit="79.8403" d="
		M225.544,332.471h17.761"/>
	
		<path fill="none" stroke="#6D6D6D" stroke-width="3" stroke-linecap="round" stroke-linejoin="round" stroke-miterlimit="79.8403" d="
		M225.244,317.771h17.761"/>
	
		<path fill="none" stroke="#6D6D6D" stroke-width="3" stroke-linecap="round" stroke-linejoin="round" stroke-miterlimit="79.8403" d="
		M271.142,304.271h38.465"/>
	
		<path fill="none" stroke="#6D6D6D" stroke-width="3" stroke-linecap="round" stroke-linejoin="round" stroke-miterlimit="79.8403" d="
		M272.041,319.271h36.967"/>
	
		<path fill="none" stroke="#6D6D6D" stroke-width="3" stroke-linecap="round" stroke-linejoin="round" stroke-miterlimit="79.8403" d="
		M272.041,333.671h15.967"/>
	
		<path fill="none" stroke="#6D6D6D" stroke-width="3" stroke-linecap="round" stroke-linejoin="round" stroke-miterlimit="79.8403" d="
		M360.548,296.771h21.053"/>
	
		<path fill="none" stroke="#6D6D6D" stroke-width="3" stroke-linecap="round" stroke-linejoin="round" stroke-miterlimit="79.8403" d="
		M360.855,282.371h43.239"/>
	
		<path fill="none" stroke="#6D6D6D" stroke-width="3" stroke-linecap="round" stroke-linejoin="round" stroke-miterlimit="79.8403" d="
		M383.648,268.572H404.7"/>
	
		<path fill="none" stroke="#6D6D6D" stroke-width="3" stroke-linecap="round" stroke-linejoin="round" stroke-miterlimit="79.8403" d="
		M405.85,308.471h22.849"/>
	
		<path fill="none" stroke="#6D6D6D" stroke-width="3" stroke-linecap="round" stroke-linejoin="round" stroke-miterlimit="79.8403" d="
		M405.85,293.771h22.849"/>
	
		<path fill="none" stroke="#6D6D6D" stroke-width="3" stroke-linecap="round" stroke-linejoin="round" stroke-miterlimit="79.8403" d="
		M455.947,257.772h20.755"/>
	
		<path fill="none" stroke="#6D6D6D" stroke-width="3" stroke-linecap="round" stroke-linejoin="round" stroke-miterlimit="79.8403" d="
		M455.347,273.371h20.755"/>
	
		<path fill="none" stroke="#6D6D6D" stroke-width="3" stroke-linecap="round" stroke-linejoin="round" stroke-miterlimit="79.8403" d="
		M502.15,305.171h25.549"/>
	
		<path fill="none" stroke="#6D6D6D" stroke-width="3" stroke-linecap="round" stroke-linejoin="round" stroke-miterlimit="79.8403" d="
		M502.449,335.771h25.549"/>
	
		<path fill="none" stroke="#6D6D6D" stroke-width="3" stroke-linecap="round" stroke-linejoin="round" stroke-miterlimit="79.8403" d="
		M502.15,320.471h25.549"/>
	
		<path fill="none" stroke="#6D6D6D" stroke-width="3" stroke-linecap="round" stroke-linejoin="round" stroke-miterlimit="79.8403" d="
		M500.944,247.572h11.761"/>
	
		<path fill="none" stroke="#6D6D6D" stroke-width="3" stroke-linecap="round" stroke-linejoin="round" stroke-miterlimit="79.8403" d="
		M500.944,260.472h11.761"/>
	
		<path fill="none" stroke="#6D6D6D" stroke-width="3" stroke-linecap="round" stroke-linejoin="round" stroke-miterlimit="79.8403" d="
		M581.047,256.186v-34.737"/>
	
		<path fill="none" stroke="#6D6D6D" stroke-width="3" stroke-linecap="round" stroke-linejoin="round" stroke-miterlimit="79.8403" d="
		M564.853,241.872h14.743"/>
	
		<path fill="none" stroke="#6D6D6D" stroke-width="3" stroke-linecap="round" stroke-linejoin="round" stroke-miterlimit="79.8403" d="
		M565.153,255.372h14.743"/>
	
		<path fill="none" stroke="#6D6D6D" stroke-width="3" stroke-linecap="round" stroke-linejoin="round" stroke-miterlimit="79.8403" d="
		M582.253,233.772h38.742"/>
	
		<path fill="none" stroke="#6D6D6D" stroke-width="3" stroke-linecap="round" stroke-linejoin="round" stroke-miterlimit="79.8403" d="
		M612.254,270.071h26.141"/>
	
		<path fill="none" stroke="#6D6D6D" stroke-width="3" stroke-linecap="round" stroke-linejoin="round" stroke-miterlimit="79.8403" d="
		M624.253,250.571h14.742"/>
	
		<path fill="none" stroke="#6D6D6D" stroke-width="3" stroke-linecap="round" stroke-linejoin="round" stroke-miterlimit="79.8403" d="
		M612.554,285.97h26.141"/>
	
		<path fill="none" stroke="#6D6D6D" stroke-width="3" stroke-linecap="round" stroke-linejoin="round" stroke-miterlimit="79.8403" d="
		M611.953,302.47h26.142"/>
	
		<path fill="none" stroke="#6D6D6D" stroke-width="3" stroke-linecap="round" stroke-linejoin="round" stroke-miterlimit="79.8403" d="
		M674.953,242.171h22.842"/>
	
		<path fill="none" stroke="#6D6D6D" stroke-width="3" stroke-linecap="round" stroke-linejoin="round" stroke-miterlimit="79.8403" d="
		M673.453,225.371h22.842"/>
	
		<path fill="none" stroke="#6D6D6D" stroke-width="3" stroke-linecap="round" stroke-linejoin="round" stroke-miterlimit="79.8403" d="
		M709.759,212.771h48.03"/>
	
		<path fill="none" stroke="#6D6D6D" stroke-width="3" stroke-linecap="round" stroke-linejoin="round" stroke-miterlimit="79.8403" d="
		M731.656,229.871h26.138"/>
	
		<path fill="none" stroke="#6D6D6D" stroke-width="3" stroke-linecap="round" stroke-linejoin="round" stroke-miterlimit="79.8403" d="
		M183.501,322.607l19.319,12.359"/>
	
		<path fill="none" stroke="#6D6D6D" stroke-width="3" stroke-linecap="round" stroke-linejoin="round" stroke-miterlimit="79.8403" d="
		M225.201,318.707l19.319,12.36"/>
	
		<path fill="none" stroke="#6D6D6D" stroke-width="3" stroke-linecap="round" stroke-linejoin="round" stroke-miterlimit="79.8403" d="
		M271.099,306.407l18.124,12.36"/>
	
		<path fill="none" stroke="#6D6D6D" stroke-width="3" stroke-linecap="round" stroke-linejoin="round" stroke-miterlimit="79.8403" d="
		M270.49,320.507l17.242,12.36"/>
	
		<path fill="none" stroke="#6D6D6D" stroke-width="3" stroke-linecap="round" stroke-linejoin="round" stroke-miterlimit="79.8403" d="
		M289.393,304.907l19.936,12.36"/>
	
		<path fill="none" stroke="#6D6D6D" stroke-width="3" stroke-linecap="round" stroke-linejoin="round" stroke-miterlimit="79.8403" d="
		M361.393,283.907l19.936,12.36"/>
	
		<path fill="none" stroke="#6D6D6D" stroke-width="3" stroke-linecap="round" stroke-linejoin="round" stroke-miterlimit="79.8403" d="
		M384.793,269.507l19.936,12.36"/>
	
		<path fill="none" stroke="#6D6D6D" stroke-width="3" stroke-linecap="round" stroke-linejoin="round" stroke-miterlimit="79.8403" d="
		M407.593,294.707l19.936,12.36"/>
	
		<path fill="none" stroke="#6D6D6D" stroke-width="3" stroke-linecap="round" stroke-linejoin="round" stroke-miterlimit="79.8403" d="
		M455.893,259.907l19.936,12.36"/>
	
		<path fill="none" stroke="#6D6D6D" stroke-width="3" stroke-linecap="round" stroke-linejoin="round" stroke-miterlimit="79.8403" d="
		M502.078,248.503l9.765,11.469"/>
	
		<path fill="none" stroke="#6D6D6D" stroke-width="3" stroke-linecap="round" stroke-linejoin="round" stroke-miterlimit="79.8403" d="
		M527.86,307.006l-25.926,12.36"/>
	
		<path fill="none" stroke="#6D6D6D" stroke-width="3" stroke-linecap="round" stroke-linejoin="round" stroke-miterlimit="79.8403" d="
		M527.56,322.906l-25.926,12.36"/>
	
		<path fill="none" stroke="#6D6D6D" stroke-width="3" stroke-linecap="round" stroke-linejoin="round" stroke-miterlimit="79.8403" d="
		M637.659,272.206l-25.926,12.36"/>
	
		<path fill="none" stroke="#6D6D6D" stroke-width="3" stroke-linecap="round" stroke-linejoin="round" stroke-miterlimit="79.8403" d="
		M637.96,287.806l-25.927,12.359"/>
	
		<path fill="none" stroke="#6D6D6D" stroke-width="3" stroke-linecap="round" stroke-linejoin="round" stroke-miterlimit="79.8403" d="
		M676.393,227.507l19.936,12.36"/>
	
		<path fill="none" stroke="#6D6D6D" stroke-width="3" stroke-linecap="round" stroke-linejoin="round" stroke-miterlimit="79.8403" d="
		M757.065,213.9l-25.036,14.159"/>
	<path marker-end="none" marker-start="none" fill="#A5CBDB" d="M840.245,201.071v163.201h29.102V201.071H840.245z"/>
	<path marker-end="none" marker-start="none" fill="#6EA6BD" d="M855.846,201.071v163.201h14.701V201.071H855.846z"/>
	<path marker-end="none" marker-start="none" fill="#6EA6BD" d="M840.846,182.472v18.599h14.701v-18.599H840.846z"/>
	
		<path fill="none" stroke="#FFFFFF" stroke-width="3" stroke-linecap="round" stroke-linejoin="round" stroke-miterlimit="79.8403" stroke-dasharray="6,6" d="
		M800.15,209.012v143.479"/>
	
		<path fill="none" stroke="#FFFFFF" stroke-width="3" stroke-linecap="round" stroke-linejoin="round" stroke-miterlimit="79.8403" stroke-dasharray="6,6" d="
		M687.949,254.012v98.479"/>
	
		<path fill="none" stroke="#FFFFFF" stroke-width="3" stroke-linecap="round" stroke-linejoin="round" stroke-miterlimit="79.8403" stroke-dasharray="6,6" d="
		M574.55,264.207v87.09"/>
	
		<path fill="none" stroke="#FFFFFF" stroke-width="3" stroke-linecap="round" stroke-linejoin="round" stroke-miterlimit="79.8403" stroke-dasharray="6,6" d="
		M464.15,282.811v74.481"/>
	
		<path fill="none" stroke="#FFFFFF" stroke-width="3" stroke-linecap="round" stroke-linejoin="round" stroke-miterlimit="79.8403" stroke-dasharray="6,6" d="
		M368.75,305.609v49.286"/>
	
		<path fill="none" stroke="#FFFFFF" stroke-width="3" stroke-linecap="round" stroke-linejoin="round" stroke-miterlimit="79.8403" stroke-dasharray="6,6" d="
		M278.75,341.605v15.094"/>
	<path marker-end="none" marker-start="none" fill="#7DA2B7" d="M295.072,271.055v29.398l10.199-0.06v-29.399L295.072,271.055z"/>
	<path marker-end="none" marker-start="none" fill="#717171" d="M290.782,301.311L290.782,301.311c0,1.391,1.129,2.52,2.519,2.52
		h13.681c1.39,0,2.52-1.129,2.52-2.519v-0.001c0-1.391-1.13-2.52-2.52-2.52h-13.681
		C291.911,298.792,290.782,299.921,290.782,301.311z"/>
	<path marker-end="none" marker-start="none" fill="#EADB8A" d="M292.942,260.837v17.47c0,1.9,1.544,3.444,3.445,3.444h7.509
		c1.901,0,3.445-1.544,3.445-3.444v-17.47c0-1.9-1.544-3.444-3.445-3.444h-7.509C294.486,257.392,292.942,258.936,292.942,260.837z"
		/>
	<path marker-end="none" marker-start="none" fill="#FFFFFF" d="M297.191,245.115c2.826-2.152,6.611-1.212,8.448,2.1
		c1.837,3.313,1.034,7.748-1.792,9.9s-6.611,1.212-8.448-2.1C293.562,251.703,294.365,247.267,297.191,245.115z"/>
	<path marker-end="none" marker-start="none" fill="#EADB8A" d="M296.061,241.483c2.978-3.185,7.394-2.702,9.854,1.075
		c1.133,1.738,1.654,3.873,1.6,5.98l-13.991,0.177C293.455,246.041,294.323,243.343,296.061,241.483z"/>
	
		<path fill="none" stroke="#6D6D6D" stroke-width="3" stroke-linecap="round" stroke-linejoin="round" stroke-miterlimit="79.8403" d="
		M282.856,303.674v-59.708"/>
	<path marker-end="none" marker-start="none" fill="#EADB8A" d="M282.369,265.206v4.52c0,0.49,0.398,0.89,0.89,0.89h15.619
		c0.49,0,0.89-0.399,0.89-0.89v-4.52c0-0.491-0.399-0.89-0.89-0.89h-15.619C282.768,264.316,282.369,264.715,282.369,265.206z"/>
	<path marker-end="none" marker-start="none" fill="#FFFFFF" d="M280.534,264.91c1.345-1.023,3.146-0.577,4.021,1
		c0.874,1.576,0.492,3.688-0.853,4.712c-1.346,1.024-3.147,0.577-4.021-1C278.807,268.046,279.189,265.934,280.534,264.91z"/>
	<path marker-end="none" marker-start="none" fill="#7DA2B7" d="M702.572,178.855v29.398l10.199-0.06v-29.399L702.572,178.855z"/>
	<path marker-end="none" marker-start="none" fill="#717171" d="M698.281,209.111L698.281,209.111c0,1.391,1.129,2.52,2.52,2.52
		h13.681c1.39,0,2.519-1.129,2.519-2.519v-0.001c0-1.39-1.129-2.519-2.519-2.519h-13.681
		C699.41,206.593,698.281,207.721,698.281,209.111z"/>
	<path marker-end="none" marker-start="none" fill="#95DCB6" d="M700.442,168.637v17.469c0,1.9,1.544,3.445,3.445,3.445h7.509
		c1.901,0,3.445-1.545,3.445-3.445v-17.469c0-1.901-1.544-3.445-3.445-3.445h-7.509
		C701.986,165.192,700.442,166.736,700.442,168.637z"/>
	<path marker-end="none" marker-start="none" fill="#FFFFFF" d="M704.691,152.915c2.826-2.151,6.611-1.212,8.448,2.101
		c1.837,3.312,1.034,7.748-1.792,9.899c-2.826,2.152-6.611,1.212-8.448-2.1C701.062,159.503,701.865,155.067,704.691,152.915z"/>
	<path marker-end="none" marker-start="none" fill="#EADB8A" d="M703.561,149.283c2.978-3.184,7.394-2.702,9.854,1.075
		c1.133,1.739,1.654,3.873,1.6,5.98l-13.991,0.178C700.954,153.841,701.823,151.142,703.561,149.283z"/>
	<path marker-end="none" marker-start="none" fill="#FFFFFF" d="M703.643,183.036c1.576-0.925,3.688-0.52,4.712,0.903
		s0.576,3.33-1,4.255s-3.688,0.52-4.712-0.903C701.618,185.868,702.067,183.961,703.643,183.036z"/>
	<path marker-end="none" marker-start="none" fill="#FFFFFF" d="M727.142,189.911l13.92-8.04l7.32,13.8L727.142,189.911z"/>
	<path marker-end="none" marker-start="none" fill="#7B7B7B" d="M706.25,184.103l-0.801,3.509
		c0.212-0.101,19.772,5.179,19.532,5.059c-0.327,3.73,4.238,8.579,14.521,9.36c5.563,0.245,8.691-2.554,10.439-7.08L706.25,184.103z
		"/>
	
		<path marker-end="none" marker-start="none" fill="#FFFFFF" stroke="#727673" stroke-width="3" stroke-linecap="round" stroke-miterlimit="79.8403" d="
		M733.864,202.782c1.904-0.859,4.148-0.012,5.007,1.891c0.859,1.904,0.013,4.148-1.891,5.008c-1.904,0.858-4.148,0.012-5.007-1.892
		C731.114,205.885,731.961,203.641,733.864,202.782z"/>
	<path marker-end="none" marker-start="none" fill="#7DA2B7" d="M483.471,223.656v29.399l10.199-0.061v-29.398L483.471,223.656z"/>
	<path marker-end="none" marker-start="none" fill="#717171" d="M479.181,253.912L479.181,253.912c0,1.392,1.129,2.521,2.519,2.521
		h13.682c1.39,0,2.519-1.129,2.519-2.52v-0.001c0-1.39-1.129-2.519-2.519-2.519h-13.682
		C480.31,251.393,479.181,252.522,479.181,253.912z"/>
	<path marker-end="none" marker-start="none" fill="#95C3DC" d="M481.341,213.438v17.469c0,1.901,1.544,3.445,3.444,3.445h7.51
		c1.9,0,3.444-1.544,3.444-3.445v-17.469c0-1.901-1.544-3.445-3.444-3.445h-7.51C482.885,209.993,481.341,211.537,481.341,213.438z"
		/>
	<path marker-end="none" marker-start="none" fill="#FFFFFF" d="M485.59,197.716c2.825-2.151,6.61-1.212,8.447,2.101
		c1.838,3.312,1.034,7.748-1.792,9.899c-2.825,2.152-6.61,1.213-8.447-2.1C481.961,204.304,482.764,199.868,485.59,197.716z"/>
	<path marker-end="none" marker-start="none" fill="#EADB8A" d="M484.46,194.084c2.978-3.184,7.394-2.702,9.854,1.075
		c1.132,1.739,1.654,3.873,1.599,5.981l-13.99,0.177C481.854,198.642,482.722,195.943,484.46,194.084z"/>
	<g id="Group_25">
		<g id="Group_26">
			<g id="Group_27">
				
					<path fill="none" stroke="#95C3DC" stroke-width="2" stroke-linecap="round" stroke-linejoin="round" stroke-miterlimit="79.8403" d="
					M818.06,201.674h22.182"/>
				
					<path fill="none" stroke="#95C3DC" stroke-width="2" stroke-linecap="round" stroke-linejoin="round" stroke-miterlimit="79.8403" d="
					M818.364,216.9h22.183"/>
				
					<path fill="none" stroke="#95C3DC" stroke-width="2" stroke-linecap="round" stroke-linejoin="round" stroke-miterlimit="79.8403" d="
					M818.364,232.473h22.183"/>
				
					<path fill="none" stroke="#95C3DC" stroke-width="2" stroke-linecap="round" stroke-linejoin="round" stroke-miterlimit="79.8403" d="
					M818.364,249.43h22.183"/>
				
					<path fill="none" stroke="#95C3DC" stroke-width="2" stroke-linecap="round" stroke-linejoin="round" stroke-miterlimit="79.8403" d="
					M818.364,266.387h22.183"/>
				
					<path fill="none" stroke="#95C3DC" stroke-width="2" stroke-linecap="round" stroke-linejoin="round" stroke-miterlimit="79.8403" d="
					M817.757,282.652h22.181"/>
				
					<path fill="none" stroke="#95C3DC" stroke-width="2" stroke-linecap="round" stroke-linejoin="round" stroke-miterlimit="79.8403" d="
					M817.452,297.533h22.183"/>
			</g>
			
				<path fill="none" stroke="#95C3DC" stroke-width="2" stroke-linecap="round" stroke-linejoin="round" stroke-miterlimit="79.8403" d="
				M817.373,312.483h22.183"/>
		</g>
		
			<path fill="none" stroke="#95C3DC" stroke-width="2" stroke-linecap="round" stroke-linejoin="round" stroke-miterlimit="79.8403" d="
			M817.07,327.71h22.183"/>
		
			<path fill="none" stroke="#95C3DC" stroke-width="2" stroke-linecap="round" stroke-linejoin="round" stroke-miterlimit="79.8403" d="
			M817.07,343.629h22.183"/>
	</g>
</g>
</svg>
