<?xml version="1.0" encoding="utf-8"?>
<!-- Generator: Adobe Illustrator 16.0.0, SVG Export Plug-In . SVG Version: 6.00 Build 0)  -->
<!DOCTYPE svg PUBLIC "-//W3C//DTD SVG 1.1//EN" "http://www.w3.org/Graphics/SVG/1.1/DTD/svg11.dtd">
<svg version="1.1" id="Layer_1" xmlns="http://www.w3.org/2000/svg" xmlns:xlink="http://www.w3.org/1999/xlink" x="0px" y="0px"
	 width="141.775px" height="375.688px" viewBox="208.503 144.876 141.775 375.688"
	 enable-background="new 208.503 144.876 141.775 375.688" xml:space="preserve">
<g>
	<rect x="208.503" y="144.876" fill="none" width="141.775" height="375.688"/>
	<g>
		<path marker-end="none" marker-start="none" fill="#D9D3BC" d="M236.588,375.663c4.968-4.636,12.764-4.367,17.399,0.601
			c4.637,4.968,4.368,12.764-0.6,17.399c-4.968,4.637-12.764,4.368-17.4-0.6C231.352,388.095,231.619,380.3,236.588,375.663z"/>
		<path marker-end="none" marker-start="none" fill="#D9D3BC" d="M315.787,374.763c4.968-4.636,12.765-4.368,17.4,0.6
			s4.368,12.765-0.601,17.4c-4.968,4.636-12.764,4.368-17.399-0.601C310.552,387.195,310.82,379.399,315.787,374.763z"/>
		<path marker-end="none" marker-start="none" fill="#D9D3BC" d="M287.788,231.064c-13.112,5.188-37.168,12.15-50.278,28.82
			l-7.719,117.42c35.465,6.893,81.771,5.175,109.199-3l-4.48-118.239C322.73,246.274,302.623,234.746,287.788,231.064z"/>
		<path marker-end="none" marker-start="none" fill="#D9D3BC" d="M265.198,235.846c3.617,6.681,6.178,13.831,6.11,22.148
			l6.109-1.375l2.292,18.178c2.332-12.275,3.645-25.165,3.972-38.646l5.957-0.305c-0.123,13.231,0.712,26.274,2.598,39.104
			l2.748-18.33l5.195,0.459c1.328-6.612,5.094-12.683,10.081-18.483l-23.829-10.235L265.198,235.846z"/>
		<path marker-end="none" marker-start="none" fill="#D9D3BC" d="M267.852,176.039c12.254-13.146,30.945-11.682,41.72,3.271
			c4.403,6.109,6.806,13.528,7.273,21.063c5.948,4.158,4.8,12.27-1.749,15.278c-1.646,5.439-4.389,10.469-8.203,14.563
			c-12.252,13.144-30.945,11.68-41.718-3.272c-2.367-3.281-4.156-6.942-5.376-10.798c-8.581-4.534-5.488-15.215-1.939-14.95
			C258.271,191.848,261.643,182.702,267.852,176.039z"/>
		<path marker-end="none" marker-start="none" fill="#D9D3BC" d="M257.458,202.083l10.56-18.633
			c14.928,1.756,28.866,11.3,39.363,0.433l9.617,16.158c0.053-9.976,1.327-19.255,4.197-27.624
			c-18.634-15.484-42.749-20.991-70.653,0.823C255.931,183.414,256.87,192.782,257.458,202.083z"/>
		<path marker-end="none" marker-start="none" fill="#D9D3BC" d="M288.705,299.295c1.975-1.357,4.682-0.856,6.037,1.116
			c1.357,1.975,0.856,4.682-1.116,6.037c-1.975,1.357-4.682,0.856-6.037-1.117C286.232,303.357,286.733,300.65,288.705,299.295z"/>
		<path marker-end="none" marker-start="none" fill="#D9D3BC" d="M256.191,362.905v143.999h56.398V362.905H256.191z"/>
		
			<path fill="#D9D3BC" stroke="#4B4840" stroke-width="4" stroke-linecap="round" stroke-linejoin="round" stroke-miterlimit="79.8403" d="
			M284.689,392.07l0.3,101.086"/>
		<path marker-end="none" marker-start="none" fill="#D9D3BC" d="M270.488,498.664c-28.188,12.018-37.231,20.207-13.8,21.899
			l28.5-14.1L270.488,498.664z"/>
		<path marker-end="none" marker-start="none" fill="#D9D3BC" d="M296.888,497.763c28.188,12.018,37.231,20.207,13.8,21.9
			l-28.5-14.101L296.888,497.763z"/>
		
			<path fill="#D9D3BC" stroke="#4B4840" stroke-width="4" stroke-linecap="round" stroke-linejoin="round" stroke-miterlimit="79.8403" d="
			M254.588,290.163c-1.969,18.86,0.433,88.284,0.6,88.5c3.122,4.034,23.655,1.798,29.1-5.699c8.4,8.399,24.023,8.143,31.5,5.399
			c-1.693-12.311-0.3-42-1.8-63.6"/>
		<path marker-end="none" marker-start="none" fill="#D9D3BC" d="M288.406,337.694c1.975-1.356,4.682-0.855,6.037,1.117
			c1.357,1.974,0.856,4.681-1.117,6.037s-4.681,0.855-6.037-1.117C285.932,341.758,286.433,339.051,288.406,337.694z"/>
		<path marker-end="none" marker-start="none" fill="#FFFFFF" d="M226.588,365.171c4.968-4.636,12.764-4.367,17.399,0.601
			c4.637,4.968,4.368,12.764-0.6,17.399c-4.968,4.637-12.764,4.368-17.4-0.6C221.352,377.603,221.619,369.807,226.588,365.171z"/>
		<path marker-end="none" marker-start="none" fill="#FFFFFF" d="M305.787,364.271c4.968-4.636,12.765-4.368,17.4,0.6
			s4.368,12.765-0.601,17.4c-4.968,4.636-12.764,4.368-17.399-0.601C300.552,376.703,300.82,368.907,305.787,364.271z"/>
		<path marker-end="none" marker-start="none" fill="#302200" d="M277.788,220.572c-13.112,5.188-37.168,12.15-50.278,28.82
			l-7.719,117.42c35.465,6.893,81.771,5.175,109.199-3l-4.48-118.239C312.73,235.782,292.623,224.254,277.788,220.572z"/>
		<path marker-end="none" marker-start="none" fill="#FFFFFF" d="M255.198,225.354c3.617,6.681,6.178,13.831,6.11,22.148
			l6.109-1.375l2.292,18.178c2.332-12.275,3.645-25.165,3.972-38.646l5.957-0.305c-0.123,13.231,0.712,26.274,2.598,39.104
			l2.748-18.33l5.195,0.459c1.328-6.612,5.094-12.683,10.081-18.483l-23.829-10.235L255.198,225.354z"/>
		<path marker-end="none" marker-start="none" fill="#FFFFFF" d="M257.852,165.547c12.254-13.146,30.945-11.682,41.72,3.271
			c4.403,6.109,6.806,13.528,7.273,21.063c5.948,4.158,4.8,12.27-1.749,15.278c-1.646,5.439-4.389,10.469-8.203,14.563
			c-12.252,13.144-30.945,11.68-41.718-3.272c-2.367-3.281-4.156-6.942-5.376-10.798c-8.581-4.534-5.488-15.215-1.939-14.95
			C248.271,181.356,251.643,172.21,257.852,165.547z"/>
		<path marker-end="none" marker-start="none" fill="#9C8E5D" d="M247.458,191.591l10.56-18.633
			c14.928,1.756,28.866,11.3,39.363,0.433l9.617,16.158c0.053-9.976,1.327-19.255,4.197-27.624
			c-18.634-15.484-42.749-20.991-70.653,0.823C245.931,172.922,246.87,182.29,247.458,191.591z"/>
		<path marker-end="none" marker-start="none" fill="#938D79" d="M278.705,288.802c1.975-1.357,4.682-0.856,6.037,1.116
			c1.357,1.975,0.856,4.682-1.116,6.037c-1.975,1.357-4.682,0.856-6.037-1.117C276.232,292.865,276.733,290.158,278.705,288.802z"/>
		<path marker-end="none" marker-start="none" fill="#302200" d="M246.191,352.413v143.999h56.398V352.413H246.191z"/>
		
			<path fill="none" stroke="#4B4840" stroke-width="4" stroke-linecap="round" stroke-linejoin="round" stroke-miterlimit="79.8403" d="
			M274.689,381.578l0.3,101.086"/>
		<path marker-end="none" marker-start="none" fill="#302200" d="M260.488,488.172c-28.188,12.018-37.231,20.207-13.8,21.899
			l28.5-14.1L260.488,488.172z"/>
		<path marker-end="none" marker-start="none" fill="#302200" d="M286.888,487.271c28.188,12.018,37.231,20.207,13.8,21.9
			l-28.5-14.101L286.888,487.271z"/>
		
			<path fill="none" stroke="#4B4840" stroke-width="4" stroke-linecap="round" stroke-linejoin="round" stroke-miterlimit="79.8403" d="
			M244.588,279.671c-1.969,18.86,0.433,88.284,0.6,88.5c3.122,4.034,23.655,1.798,29.1-5.699c8.4,8.399,24.023,8.143,31.5,5.399
			c-1.693-12.311-0.3-42-1.8-63.6"/>
		<path marker-end="none" marker-start="none" fill="#938D79" d="M278.406,327.202c1.975-1.356,4.682-0.855,6.037,1.117
			c1.357,1.974,0.856,4.681-1.117,6.037s-4.681,0.855-6.037-1.117C275.932,331.265,276.433,328.558,278.406,327.202z"/>
	</g>
</g>
</svg>
