<?xml version="1.0" encoding="utf-8"?>
<!-- Generator: Adobe Illustrator 16.0.0, SVG Export Plug-In . SVG Version: 6.00 Build 0)  -->
<!DOCTYPE svg PUBLIC "-//W3C//DTD SVG 1.1//EN" "http://www.w3.org/Graphics/SVG/1.1/DTD/svg11.dtd">
<svg version="1.1" id="Layer_1" xmlns="http://www.w3.org/2000/svg" xmlns:xlink="http://www.w3.org/1999/xlink" x="0px" y="0px"
	 width="141.775px" height="375.688px" viewBox="619.989 144.876 141.775 375.688"
	 enable-background="new 619.989 144.876 141.775 375.688" xml:space="preserve">
<g>
	<rect x="619.989" y="144.876" fill="none" width="141.775" height="375.688"/>
	<g>
		<g>
			<path marker-end="none" marker-start="none" fill="#D9D3BC" d="M658.438,185.978l76.225-2.578
				c0.147,16.135-5.019,23.998-13.623,26.514l-49.344,0.736C661.94,210.432,658.433,200.84,658.438,185.978z"/>
			<path marker-end="none" marker-start="none" fill="#D9D3BC" d="M687.87,226.711c-12.298,18.493-2.136,41.938,9,58.5
				c0.857,1.573,5.417,2.523,7.8,1.5c7.053-3.029,24.322-66.552-12.399-61.2L687.87,226.711z"/>
			<path marker-end="none" marker-start="none" fill="#D9D3BC" d="M677.954,178.699c11.789-12.647,29.771-11.238,40.138,3.146
				c4.236,5.877,6.548,13.015,6.997,20.266c5.724,4,4.618,11.805-1.683,14.699c-1.582,5.232-4.221,10.071-7.892,14.009
				c-11.788,12.646-29.771,11.238-40.138-3.146c-2.274-3.157-3.997-6.681-5.17-10.39c-8.257-4.362-5.281-14.638-1.866-14.383
				C668.737,193.908,671.981,185.109,677.954,178.699z"/>
			<path marker-end="none" marker-start="none" fill="#D9D3BC" d="M670.755,193.241l53.025-1.325l-2.063-7.808l-49.489,0.147
				L670.755,193.241z"/>
			<path marker-end="none" marker-start="none" fill="#D9D3BC" d="M663.596,186.347c-2.189,5.356,1.309,16.509,4.003,19.838
				c2.964-3.905,5.752-15.608,9.619-17.996C674.002,188.747,664.158,187.085,663.596,186.347z"/>
			<path marker-end="none" marker-start="none" fill="#D9D3BC" d="M718.092,187.451c5.168,6.461,4.162,13.906,6.006,16.602
				c2.523-1.993,7.609-16.285,6.668-20.023C727.903,183.623,720.177,186.471,718.092,187.451z"/>
			<g id="Group_22_1_">
				<path marker-end="none" marker-start="none" fill="#D9D3BC" d="M736.137,184.137c-3.253-19.825-17.203-28.214-39.034-29.458
					c-25.118,2.08-34.773,16.308-39.032,31.299c-0.277,5.494,0.552,14.18,2.375,14.48c1.969,0.322,7.027-12.896,8.999-12.623
					c18.987,2.647,37.811,2.03,56.021-0.909c1.8-0.29,5.962,9.721,7.741,9.26C734.987,195.726,735.859,188.232,736.137,184.137z"/>
				<a>
					<path marker-end="none" marker-start="none" fill="#D9D3BC" d="M670.33,165.004l1.84-1.571c1.69-1.317,3.553-2.521,5.606-3.591
						l1.345-0.625l0.007,0.256c0.255,8.123,0.617,19.393-6.329,22.088c-2.887-5.46-2.924-10.538-2.521-15.935L670.33,165.004z"/>
				</a>
				<a>
					<path marker-end="none" marker-start="none" fill="#D9D3BC" d="M692.964,155.156l1.828-0.246
						c0.755-0.089,1.525-0.166,2.311-0.23c1.363,0.078,2.697,0.184,4,0.318l1.96,0.253l0.049,1.645
						c0.253,9.469,0.029,21.236-7.672,24.225c-4.162-7.872-3.396-15.083-2.7-23.087L692.964,155.156z"/>
				</a>
				<a>
					<path marker-end="none" marker-start="none" fill="#D9D3BC" d="M716.394,158.575l1.795,0.745
						c2.911,1.352,5.508,3.01,7.771,5.005l0.354,0.346l-0.162,3.638c-0.542,6.295-2.292,11.991-7.255,13.918
						c-4.021-7.608-3.279-14.578-2.608-22.314L716.394,158.575z"/>
				</a>
			</g>
			<path marker-end="none" marker-start="none" fill="#D9D3BC" d="M647.666,374.375c5.133-3.644,12.257-2.434,15.9,2.699
				c3.643,5.134,2.433,12.257-2.7,15.9c-5.133,3.643-12.257,2.433-15.9-2.7C641.323,385.141,642.533,378.017,647.666,374.375z"/>
			<path marker-end="none" marker-start="none" fill="#D9D3BC" d="M664.306,376.382v95.999h59.999v-95.999H664.306z"/>
			
				<path fill="#D9D3BC" stroke="#759AAF" stroke-width="8" stroke-linecap="round" stroke-linejoin="round" stroke-miterlimit="79.8403" d="
				M694.367,381.069l0.3,82.5"/>
			<path marker-end="none" marker-start="none" fill="#D9D3BC" d="M696.736,280.981l-13.669-47.006
				c-15.425,10.58-30.518,18.182-36.265,34.565c-2.57,8.861-9.187,97.109-6.899,104.998c5.2,1.739,13.933,2.447,19.905-0.7
				c-4.605,25.001,61.188,14.062,69.494,12.4c6-1.2,3.238-24.246,2.101-39.899c1.301-2.018,15.728,1.307,20.1-5.101
				c8.547-12.524-11.225-64.606-14.7-79.198c-3.85-13.041-13.772-20.238-24.233-26.822L696.736,280.981z"/>
			<g id="Group_23_1_">
				<path marker-end="none" marker-start="none" fill="#D9D3BC" d="M660.267,464.974l32.699,3.601l32.7-2.101l1.8,28.2
					c21.724,26.415,3.175,30.33-36.6,14.4c-26.566,14.976-61.726,11.976-31.5-15L660.267,464.974z"/>
				<a>
					<path marker-end="none" marker-start="none" fill="#D9D3BC" d="M690.866,509.075c-18.265,10.296-40.591,12.096-42.939,3.448
						l-0.112-0.726l3.173,0.51c16.293,2.149,28.718-3.253,40.539-9.833c11.469,6.51,24.245,11.416,41.589,10.716l3.488-0.213
						l0.011-0.049C735.524,521.598,718.21,520.026,690.866,509.075z"/>
				</a>
			</g>
			<path marker-end="none" marker-start="none" fill="#D9D3BC" d="M659.841,480.306v4.915c5.878-1.502,12.757,0.694,18.259,1.826
				v-4.915C672.779,480.416,665.904,478.313,659.841,480.306z"/>
			<path marker-end="none" marker-start="none" fill="#D9D3BC" d="M659.561,490.489v4.915c5.878-1.502,12.756,0.694,18.258,1.826
				v-4.915C672.497,490.598,665.622,488.497,659.561,490.489z"/>
			<path marker-end="none" marker-start="none" fill="#D9D3BC" d="M727.257,480.606v4.915c-5.878-1.502-12.756,0.694-18.258,1.826
				v-4.915C714.321,480.716,721.196,478.613,727.257,480.606z"/>
			<path marker-end="none" marker-start="none" fill="#D9D3BC" d="M727.538,490.79v4.915c-5.878-1.502-12.756,0.693-18.258,1.825
				v-4.914C714.602,490.898,721.477,488.797,727.538,490.79z"/>
			<path marker-end="none" marker-start="none" fill="#D9D3BC" d="M663.602,288.66v18.859c0,1.17,0.95,2.121,2.121,2.121h15.709
				c1.17,0,2.12-0.951,2.12-2.121V288.66c0-1.17-0.95-2.121-2.12-2.121h-15.709C664.552,286.539,663.602,287.49,663.602,288.66z"/>
			<path marker-end="none" marker-start="none" fill="#D9D3BC" d="M691.202,295.24v70.799h47.699V295.24H691.202z"/>
			<path marker-end="none" marker-start="none" fill="#D9D3BC" d="M688.466,320.375c5.134-3.644,12.258-2.434,15.9,2.699
				c3.643,5.134,2.433,12.257-2.7,15.9c-5.133,3.643-12.257,2.433-15.899-2.7C682.123,331.141,683.333,324.017,688.466,320.375z"/>
			<path marker-end="none" marker-start="none" fill="#D9D3BC" d="M704.918,319.779l-2.179,20.674l37.446,4.496l2.179-20.673
				L704.918,319.779z"/>
			
				<path fill="#D9D3BC" stroke="#9FBFD1" stroke-width="4" stroke-linecap="round" stroke-linejoin="round" stroke-miterlimit="79.8403" d="
				M697.667,304.869h35.4"/>
			
				<path fill="#D9D3BC" stroke="#9FBFD1" stroke-width="2" stroke-linecap="round" stroke-linejoin="round" stroke-miterlimit="79.8403" d="
				M703.486,312.883l24.304-0.427"/>
		</g>
		<g>
			<path marker-end="none" marker-start="none" fill="#D6A529" d="M647.135,177.28l76.225-2.578
				c0.147,16.135-5.019,23.998-13.623,26.514l-49.344,0.736C650.637,201.734,647.13,192.141,647.135,177.28z"/>
			<path marker-end="none" marker-start="none" fill="#9FBFD1" d="M676.568,218.012c-12.298,18.493-2.136,41.938,9,58.5
				c0.857,1.573,5.417,2.523,7.8,1.5c7.053-3.029,24.322-66.552-12.399-61.2L676.568,218.012z"/>
			<path marker-end="none" marker-start="none" fill="#FFFFFF" d="M666.652,170.001c11.789-12.647,29.771-11.238,40.138,3.146
				c4.236,5.877,6.548,13.015,6.997,20.266c5.724,4,4.618,11.805-1.683,14.699c-1.582,5.232-4.221,10.071-7.892,14.009
				c-11.788,12.646-29.771,11.238-40.138-3.146c-2.274-3.157-3.997-6.681-5.17-10.39c-8.257-4.362-5.281-14.638-1.866-14.383
				C657.434,185.21,660.678,176.411,666.652,170.001z"/>
			<path marker-end="none" marker-start="none" fill="#C0BDAF" d="M659.452,184.543l53.025-1.325l-2.063-7.808l-49.489,0.147
				L659.452,184.543z"/>
			<path marker-end="none" marker-start="none" fill="#302200" d="M652.293,177.649c-2.189,5.356,1.309,16.509,4.003,19.838
				c2.964-3.905,5.752-15.608,9.619-17.996C662.699,180.049,652.856,178.386,652.293,177.649z"/>
			<path marker-end="none" marker-start="none" fill="#302200" d="M706.789,178.753c5.168,6.461,4.162,13.906,6.006,16.602
				c2.523-1.993,7.609-16.285,6.668-20.023C716.6,174.925,708.874,177.773,706.789,178.753z"/>
			<g id="Group_22">
				<path marker-end="none" marker-start="none" fill="#F6DA5A" d="M724.834,175.439c-3.253-19.825-17.203-28.214-39.034-29.458
					c-25.118,2.08-34.773,16.308-39.032,31.299c-0.277,5.494,0.552,14.18,2.375,14.48c1.969,0.322,7.027-12.896,8.999-12.623
					c18.987,2.647,37.811,2.03,56.021-0.909c1.8-0.29,5.962,9.721,7.741,9.26C723.684,187.028,724.556,179.534,724.834,175.439z"/>
				<a>
					<path marker-end="none" marker-start="none" fill="#FAEA96" d="M659.028,156.305l1.84-1.571
						c1.69-1.317,3.553-2.521,5.606-3.591l1.345-0.625l0.007,0.256c0.255,8.123,0.617,19.393-6.329,22.088
						c-2.887-5.46-2.924-10.538-2.521-15.935L659.028,156.305z"/>
				</a>
				<a>
					<path marker-end="none" marker-start="none" fill="#FAEA96" d="M681.661,146.458l1.828-0.246
						c0.755-0.089,1.525-0.166,2.311-0.23c1.363,0.078,2.697,0.184,4,0.318l1.96,0.253l0.049,1.645
						c0.253,9.469,0.029,21.236-7.672,24.225c-4.162-7.872-3.396-15.083-2.7-23.087L681.661,146.458z"/>
				</a>
				<a>
					<path marker-end="none" marker-start="none" fill="#FAEA96" d="M705.091,149.877l1.795,0.745
						c2.911,1.352,5.508,3.01,7.771,5.005l0.354,0.346l-0.162,3.638c-0.542,6.295-2.292,11.991-7.255,13.918
						c-4.021-7.608-3.279-14.578-2.608-22.314L705.091,149.877z"/>
				</a>
			</g>
			<path marker-end="none" marker-start="none" fill="#FFFFFF" d="M636.364,365.677c5.133-3.644,12.257-2.434,15.9,2.699
				c3.643,5.134,2.433,12.257-2.7,15.9c-5.133,3.643-12.257,2.433-15.9-2.7C630.021,376.443,631.231,369.319,636.364,365.677z"/>
			<path marker-end="none" marker-start="none" fill="#9FBFD1" d="M653.003,367.683v95.999h59.999v-95.999H653.003z"/>
			
				<path fill="none" stroke="#759AAF" stroke-width="8" stroke-linecap="round" stroke-linejoin="round" stroke-miterlimit="79.8403" d="
				M683.065,372.371l0.3,82.5"/>
			<path marker-end="none" marker-start="none" fill="#E9B2B2" d="M685.433,272.283l-13.669-47.006
				c-15.425,10.58-30.518,18.182-36.265,34.565c-2.57,8.861-9.187,97.109-6.899,104.998c5.2,1.739,13.933,2.447,19.905-0.7
				c-4.605,25.001,61.188,14.062,69.494,12.4c6-1.2,3.238-24.246,2.101-39.899c1.301-2.018,15.728,1.307,20.1-5.101
				c8.547-12.524-11.225-64.606-14.7-79.198c-3.85-13.041-13.772-20.238-24.233-26.822L685.433,272.283z"/>
			<g id="Group_23">
				<path marker-end="none" marker-start="none" fill="#F6DA5A" d="M648.964,456.276l32.699,3.601l32.7-2.101l1.8,28.2
					c21.724,26.415,3.175,30.33-36.6,14.4c-26.566,14.976-61.726,11.976-31.5-15L648.964,456.276z"/>
				<a>
					<path marker-end="none" marker-start="none" fill="#4C4C4C" d="M679.564,500.377c-18.265,10.296-40.591,12.096-42.939,3.448
						l-0.112-0.726l3.173,0.51c16.293,2.149,28.718-3.253,40.539-9.833c11.469,6.51,24.245,11.416,41.589,10.716l3.488-0.213
						l0.011-0.049C724.221,512.9,706.907,511.328,679.564,500.377z"/>
				</a>
			</g>
			<path marker-end="none" marker-start="none" fill="#4C4C4C" d="M648.538,471.608v4.915c5.878-1.502,12.757,0.694,18.259,1.826
				v-4.915C661.476,471.718,654.601,469.615,648.538,471.608z"/>
			<path marker-end="none" marker-start="none" fill="#4C4C4C" d="M648.258,481.791v4.915c5.878-1.502,12.756,0.694,18.258,1.826
				v-4.915C661.195,481.9,654.32,479.799,648.258,481.791z"/>
			<path marker-end="none" marker-start="none" fill="#4C4C4C" d="M715.954,471.908v4.915c-5.878-1.502-12.756,0.694-18.258,1.826
				v-4.915C703.018,472.017,709.893,469.915,715.954,471.908z"/>
			<path marker-end="none" marker-start="none" fill="#4C4C4C" d="M716.236,482.092v4.915c-5.878-1.502-12.756,0.693-18.258,1.825
				v-4.914C703.299,482.2,710.174,480.098,716.236,482.092z"/>
			<path marker-end="none" marker-start="none" fill="#FFFFFF" d="M652.299,279.962v18.859c0,1.17,0.95,2.121,2.121,2.121h15.709
				c1.17,0,2.12-0.951,2.12-2.121v-18.859c0-1.17-0.95-2.121-2.12-2.121H654.42C653.249,277.841,652.299,278.792,652.299,279.962z"
				/>
			<path marker-end="none" marker-start="none" fill="#FFFFFF" d="M679.9,286.542v70.799h47.699v-70.799H679.9z"/>
			<path marker-end="none" marker-start="none" fill="#FFFFFF" d="M677.163,311.677c5.134-3.644,12.258-2.434,15.9,2.699
				c3.643,5.134,2.433,12.257-2.7,15.9c-5.133,3.643-12.257,2.433-15.899-2.7C670.821,322.443,672.031,315.319,677.163,311.677z"/>
			<path marker-end="none" marker-start="none" fill="#E9B2B2" d="M693.615,311.081l-2.179,20.674l37.446,4.496l2.179-20.673
				L693.615,311.081z"/>
			
				<path fill="none" stroke="#9FBFD1" stroke-width="4" stroke-linecap="round" stroke-linejoin="round" stroke-miterlimit="79.8403" d="
				M686.365,296.171h35.4"/>
			
				<path fill="none" stroke="#9FBFD1" stroke-width="2" stroke-linecap="round" stroke-linejoin="round" stroke-miterlimit="79.8403" d="
				M692.183,304.184l24.304-0.427"/>
		</g>
	</g>
</g>
</svg>
