<?xml version="1.0" encoding="utf-8"?>
<!-- Generator: Adobe Illustrator 16.0.0, SVG Export Plug-In . SVG Version: 6.00 Build 0)  -->
<!DOCTYPE svg PUBLIC "-//W3C//DTD SVG 1.1//EN" "http://www.w3.org/Graphics/SVG/1.1/DTD/svg11.dtd">
<svg version="1.1" id="Layer_1" xmlns="http://www.w3.org/2000/svg" xmlns:xlink="http://www.w3.org/1999/xlink" x="0px" y="0px"
	 width="225.674px" height="257.068px" viewBox="775.865 442.989 225.674 257.068"
	 enable-background="new 775.865 442.989 225.674 257.068" xml:space="preserve">
<filter  id="StainedFilter">
	<feBlend  result="blend" in="SourceGraphic" in2="BackgroundImage" mode="multiply"></feBlend>
	<feComposite  operator="in" result="comp" in="blend" in2="SourceAlpha"></feComposite>
</filter>
<pattern  x="200.5" y="750.5" width="1000" height="1000" patternUnits="userSpaceOnUse" id="BitmapFill" viewBox="0 -1000 1000 1000" overflow="visible">
	<g>
		<polygon fill="none" points="0,0 1000,0 1000,-1000 0,-1000 		"/>
		<g transform="scale(211500 255750)">
			<image overflow="visible" width="254" height="307" xlink:href="78062CD4.png"  transform="matrix(1 0 0 -1 -21.1494 25.5752)">
			</image>
		</g>
	</g>
</pattern>
<pattern  x="200.5" y="750.5" width="1000" height="1000" patternUnits="userSpaceOnUse" id="BitmapFill_5" viewBox="0 -1000 1000 1000" overflow="visible">
	<g>
		<polygon fill="none" points="0,0 1000,0 1000,-1000 0,-1000 		"/>
		<g transform="scale(90750 60750)">
			<image overflow="visible" width="109" height="73" xlink:href="78062CD5.png"  transform="matrix(1 0 0 -1 -9.0747 6.0752)">
			</image>
		</g>
	</g>
</pattern>
<g>
	<defs>
		<rect id="SVGID_1_" x="0.069" y="-1.668" width="959.999" height="542.399"/>
	</defs>
	<clipPath id="SVGID_2_">
		<use xlink:href="#SVGID_1_"  overflow="visible"/>
	</clipPath>
</g>
<g id="Shape" marker-end="none" marker-start="none" filter="url(#StainedFilter)">
	<rect x="0.069" y="-1.668" fill="none" width="959.999" height="542.399"/>
</g>
<g id="Group">
	<g id="Group_1">
		<defs>
			<filter id="Adobe_OpacityMaskFilter" filterUnits="userSpaceOnUse" x="790.043" y="444.307" width="211.496" height="255.75">
				<feColorMatrix  type="matrix" values="1 0 0 0 0  0 1 0 0 0  0 0 1 0 0  0 0 0 1 0"/>
			</filter>
		</defs>
		<mask maskUnits="userSpaceOnUse" x="790.043" y="444.307" width="211.496" height="255.75" id="TranspMask">
			
				<pattern  id="SVGID_3_" xlink:href="#BitmapFill" patternTransform="matrix(1 0 0 -1 589.5425 -18837.8906)"  filter="url(#Adobe_OpacityMaskFilter)">
			</pattern>
			<rect x="-96" y="-54" fill="url(#SVGID_3_)" filter="url(#Adobe_OpacityMaskFilter)" width="1151.999" height="648"/>
		</mask>
		<path marker-end="none" marker-start="none" mask="url(#TranspMask)" fill="#D9D3BC" d="M790.043,444.307h211.496v255.75H790.043
			V444.307z"/>
		<path marker-end="none" marker-start="none" fill="#FFFFFF" d="M985.429,494.778l-127.071-51.789l-82.492,202.362l127.071,51.788
			L985.429,494.778z"/>
	</g>
	<path fill="none" stroke="#9FBFD1" stroke-width="4.841" stroke-linecap="round" stroke-miterlimit="79.8403" d="M953.091,516.992
		l-90.853-36.83"/>
	<path fill="none" stroke="#9FBFD1" stroke-width="4.841" stroke-linecap="round" stroke-miterlimit="79.8403" d="M945.163,535.153
		l-90.852-36.833"/>
	<path fill="none" stroke="#9FBFD1" stroke-width="4.841" stroke-linecap="round" stroke-miterlimit="79.8403" d="M937.979,555.486
		l-71.776-29.563"/>
	<path fill="none" stroke="#9FBFD1" stroke-width="4.841" stroke-linecap="round" stroke-miterlimit="79.8403" d="M930.003,574.841
		l-90.851-36.831"/>
</g>
<g id="Group_12">
	<g id="Group_13">
		<defs>
			<filter id="Adobe_OpacityMaskFilter_1_" filterUnits="userSpaceOnUse" x="832.693" y="485.112" width="90.75" height="60.75">
				<feColorMatrix  type="matrix" values="1 0 0 0 0  0 1 0 0 0  0 0 1 0 0  0 0 0 1 0"/>
			</filter>
		</defs>
		<mask maskUnits="userSpaceOnUse" x="832.693" y="485.112" width="90.75" height="60.75" id="TranspMask_5">
			
				<pattern  id="SVGID_4_" xlink:href="#BitmapFill_5" patternTransform="matrix(1 0 0 -1 632.1924 -18878.6953)"  filter="url(#Adobe_OpacityMaskFilter_1_)">
			</pattern>
			<rect x="-96" y="-54" fill="url(#SVGID_4_)" filter="url(#Adobe_OpacityMaskFilter_1_)" width="1151.999" height="648"/>
		</mask>
		<path marker-end="none" marker-start="none" mask="url(#TranspMask_5)" fill="#D9D3BC" d="M832.693,485.112h90.75v60.75h-90.75
			V485.112z"/>
		<g id="Group_14">
			<path marker-end="none" marker-start="none" fill="#B46140" d="M898.977,504.628l-8.64-14.736l-60.989,36.124l8.639,14.736
				L898.977,504.628z"/>
			<g id="Group_15">
				<path marker-end="none" marker-start="none" fill="#FFFFFF" d="M898.946,505.035l12.632-12.647l7.537-7.547
					c-0.289-0.78-1.474-2.116-1.935-3.099l-10.163,2.896l-17.194,4.898l4.562,7.749L898.946,505.035z"/>
				<a>
					<path marker-end="none" marker-start="none" fill="#505050" d="M908.995,494.972l-5.48-9.337l3.502-0.998l10.163-2.896
						c0.461,0.982,1.646,2.318,1.935,3.099l-7.537,7.547L908.995,494.972z"/>
				</a>
			</g>
		</g>
	</g>
	<path marker-end="none" marker-start="none" fill="#D9D3BC" d="M876.053,510.291l-1.671-2.875l-33.492,19.461l1.67,2.875
		L876.053,510.291z"/>
</g>
</svg>
